<svg width="70" height="70" viewBox="0 0 70 70" fill="none" xmlns="http://www.w3.org/2000/svg">
<g filter="url(#filter0_f_85_329)">
<circle cx="35" cy="35" r="21" fill="#A037D9" fill-opacity="0.3"/>
</g>
<path d="M22.375 25.225L35.125 18L47.875 25.225L54.25 36.275L35.125 55.825L16 36.7L22.375 25.225Z" fill="#370854"/>
<path d="M47.1703 26.6095C48.261 28.6047 49.3621 30.5943 50.4735 32.5782L51.6859 34.7162C51.8853 35.0668 52.1121 35.4177 52.2846 35.7813L52.2209 35.783C52.1384 35.7362 51.0184 34.4115 50.871 34.2457C49.7555 32.9906 48.5788 31.7927 47.4443 30.5548L47.435 30.5164C47.4731 29.7798 46.9975 27.0108 47.1703 26.6095Z" fill="#3E0758"/>
<path d="M47.4438 30.5548C48.5783 31.7927 49.755 32.9906 50.8706 34.2457C51.018 34.4115 52.138 35.7362 52.2204 35.783L52.2842 35.7813C52.3796 35.9002 52.4702 36.0907 52.5193 36.2358C52.3914 36.2358 51.9292 35.9964 51.7654 35.9318C51.2372 35.7231 50.6993 35.5394 50.1713 35.3291C49.7338 35.1549 49.3073 34.9557 48.8744 34.7706C48.5052 34.6128 48.0994 34.4718 47.7539 34.2682C47.6343 33.0317 47.5309 31.794 47.4438 30.5548Z" fill="#5A1087"/>
<path d="M35.2604 19.3492C36.4507 19.9945 37.6142 20.7099 38.7808 21.398L43.7582 24.3304L45.7046 25.4831C46.0864 25.709 46.4658 25.9455 46.855 26.1582L46.7694 26.1815L46.8595 26.208L46.8726 26.237C46.6924 26.3687 46.4919 26.475 46.3027 26.5934L45.3263 27.2146C45.1143 27.3478 44.8901 27.4739 44.686 27.6179L44.6753 27.6134C44.5334 27.4538 44.3682 27.3053 44.2173 27.1535C44.0109 27.0615 43.6346 26.7558 43.4622 26.598L43.4126 26.6037L40.9195 26.9321C40.4273 26.9986 39.9296 27.0864 39.4353 27.1305C39.2785 26.9018 39.155 26.6312 39.0221 26.3866C38.7469 25.8822 38.4744 25.3762 38.2047 24.8687L37.0163 22.6571C36.8736 22.388 36.7187 22.1244 36.5862 21.8502C36.5825 21.8459 36.5784 21.8419 36.5751 21.8373C36.4463 21.6562 35.2522 19.4827 35.25 19.411C35.2494 19.3901 35.2569 19.3698 35.2604 19.3492Z" fill="#644080"/>
<path d="M46.7691 26.1815L46.8593 26.208L46.8723 26.237C46.6921 26.3687 46.4916 26.4751 46.3024 26.5935L45.326 27.2146C45.114 27.3478 44.8898 27.4739 44.6857 27.6179L44.675 27.6134C44.5331 27.4538 44.3679 27.3054 44.2171 27.1535C44.0106 27.0615 43.6344 26.7558 43.4619 26.598C43.575 26.581 43.6889 26.5682 43.8023 26.554C44.2109 26.4935 44.6268 26.4606 45.0373 26.4114C45.6151 26.3388 46.1923 26.2621 46.7691 26.1815Z" fill="#3E0758"/>
<path d="M36.5859 21.8503C36.7829 21.9279 36.9843 22.0928 37.161 22.211C37.5787 22.4916 37.9949 22.7745 38.4096 23.0596L41.4737 25.1842C42.1193 25.6349 42.7847 26.079 43.4062 26.5618L43.4176 26.593L43.4124 26.6038L40.9192 26.9321C40.427 26.9986 39.9294 27.0865 39.4351 27.1305C39.2783 26.9019 39.1548 26.6313 39.0218 26.3867C38.7466 25.8822 38.4742 25.3762 38.2045 24.8688L37.016 22.6572C36.8734 22.3881 36.7185 22.1245 36.5859 21.8503Z" fill="#7A588E"/>
<path d="M23.3345 26.1613C24.5695 25.3701 25.8653 24.6634 27.1326 23.925L32.3618 20.8598L34.1611 19.804C34.4437 19.6381 34.8236 19.3745 35.128 19.275L35.1027 19.3114C34.8425 19.5464 33.8248 21.5512 33.5943 21.972L31.4934 25.7828L31.0303 26.6311C30.9637 26.7532 30.8973 26.9133 30.8114 27.0201C30.4503 27.6826 30.0846 28.3426 29.7141 28.9999C29.5802 29.2425 29.3603 29.7191 29.2013 29.9217C29.064 29.8112 28.8987 29.7185 28.7503 29.6222C28.3918 29.3909 28.031 29.163 27.668 28.9386C27.0476 28.5513 26.4409 28.1363 25.8119 27.7638C25.5197 27.5559 25.1997 27.3734 24.8946 27.1844L23.2803 26.1889L23.3345 26.1613Z" fill="#A037D9"/>
<path d="M23.2803 26.1889L23.3345 26.1613C23.5931 26.2264 23.8681 26.2463 24.1328 26.2763L25.2863 26.4055L29.1439 26.8196C29.4331 26.8483 30.599 26.9409 30.8114 27.0201C30.4503 27.6826 30.0846 28.3425 29.7141 28.9998C29.5802 29.2425 29.3603 29.719 29.2013 29.9217C29.064 29.8112 28.8987 29.7184 28.7503 29.6222C28.3918 29.3908 28.031 29.163 27.668 28.9386C27.0476 28.5513 26.4409 28.1363 25.8119 27.7638C25.5197 27.5558 25.1997 27.3734 24.8946 27.1843L23.2803 26.1889Z" fill="#5A1087"/>
<path d="M46.8547 26.1582C47.0105 26.2378 47.0936 26.4577 47.1701 26.6095C46.9974 27.0108 47.473 29.7798 47.4348 30.5164L47.4442 30.5548C47.5312 31.7939 47.6346 33.0317 47.7542 34.2682C47.5191 34.3819 47.2933 34.5564 47.0742 34.6997L45.7535 35.5627L44.53 36.3606C44.3475 36.4779 44.1157 36.591 43.9528 36.7301L43.9455 36.7285C43.6185 36.0747 43.3547 35.3818 43.0658 34.7099L41.8087 31.8218C41.6373 31.4116 41.4623 31.003 41.2838 30.5958C41.1981 30.3998 41.116 30.1502 40.9878 29.9809L40.9815 29.9692C40.7349 29.5634 40.526 29.1271 40.2983 28.7101C40.011 28.1842 39.703 27.6662 39.4351 27.1304C39.9293 27.0864 40.427 26.9985 40.9192 26.932L43.4123 26.6037L43.4619 26.5979C43.6344 26.7557 44.0107 27.0614 44.2171 27.1534C44.368 27.3053 44.5332 27.4537 44.6751 27.6133L44.6857 27.6179C44.8899 27.4738 45.114 27.3477 45.326 27.2145L46.3024 26.5934C46.4917 26.475 46.6921 26.3686 46.8724 26.2369L46.8593 26.2079L46.7691 26.1814L46.8547 26.1582Z" fill="#7020A1"/>
<path d="M46.8546 26.1582C47.0103 26.2378 47.0935 26.4577 47.1699 26.6095C46.9972 27.0108 47.4728 29.7798 47.4347 30.5164C47.2443 30.4167 46.7319 29.7924 46.5531 29.6014C45.9386 28.9327 45.3161 28.2715 44.6855 27.6179C44.8897 27.4738 45.1139 27.3477 45.3258 27.2145L46.3022 26.5934C46.4915 26.475 46.692 26.3686 46.8722 26.2369L46.8591 26.2079L46.7689 26.1814L46.8546 26.1582Z" fill="#5A1087"/>
<path d="M43.4123 26.6037L43.4619 26.598C43.6344 26.7558 44.0107 27.0615 44.2171 27.1535C44.368 27.3054 44.5332 27.4538 44.6751 27.6134C43.9551 28.0968 43.2128 28.5449 42.4853 29.0166C42.1364 29.2451 41.7861 29.4714 41.4344 29.6956C41.2881 29.7871 41.1366 29.8946 40.9815 29.9693C40.7349 29.5634 40.526 29.1271 40.2983 28.7101C40.011 28.1842 39.703 27.6663 39.4351 27.1305C39.9293 27.0865 40.427 26.9986 40.9192 26.9321L43.4123 26.6037Z" fill="#5A1087"/>
<path d="M35.1283 19.275L35.2603 19.3493C35.2568 19.3698 35.2493 19.3902 35.2499 19.411C35.2521 19.4827 36.4462 21.6562 36.575 21.8373C36.5783 21.8419 36.5824 21.8459 36.5861 21.8503C36.7186 22.1244 36.8735 22.388 37.0162 22.6571L38.2046 24.8688C38.4743 25.3762 38.7468 25.8822 39.022 26.3867C39.1549 26.6313 39.2784 26.9019 39.4352 27.1305C39.7031 27.6663 40.0112 28.1842 40.2984 28.7101C40.5261 29.1271 40.7351 29.5634 40.9816 29.9693L40.988 29.981C40.959 30.0156 40.9268 30.0665 40.8898 30.0914C40.8303 30.1133 40.7834 30.1389 40.7307 30.1738C40.1644 30.5153 39.61 30.8776 39.048 31.2261C37.7295 32.0409 36.418 32.8668 35.1136 33.7039C34.4938 33.2663 33.8216 32.8969 33.1818 32.4891L29.2861 29.9894C29.2621 29.9569 29.2366 29.9507 29.2007 29.9342L29.2016 29.9217C29.3605 29.7191 29.5805 29.2425 29.7144 28.9999C30.0848 28.3426 30.4506 27.6826 30.8117 27.0201C30.8976 26.9133 30.9639 26.7532 31.0306 26.6311L31.4937 25.7828L33.5946 21.972C33.8251 21.5512 34.8427 19.5464 35.103 19.3114L35.1283 19.275Z" fill="#A037D9"/>
<path d="M35.103 19.3115L35.1053 28.5132C35.1055 30.2412 35.0709 31.9769 35.1136 33.704C34.4938 33.2663 33.8216 32.8969 33.1818 32.4892L29.2861 29.9895C29.2621 29.9569 29.2366 29.9508 29.2007 29.9342L29.2016 29.9218C29.3605 29.7191 29.5805 29.2426 29.7144 28.9999C30.0848 28.3426 30.4506 27.6827 30.8117 27.0202C30.8976 26.9134 30.9639 26.7533 31.0306 26.6311L31.4937 25.7829L33.5946 21.972C33.8251 21.5512 34.8427 19.5464 35.103 19.3115Z" fill="#C491EC"/>
<path d="M47.7543 34.2682C48.0997 34.4719 48.5056 34.6129 48.8748 34.7707C49.3077 34.9558 49.7342 35.1549 50.1717 35.3292C50.6997 35.5394 51.2375 35.7232 51.7658 35.9318C51.9296 35.9965 52.3917 36.2359 52.5197 36.2359L52.5408 36.274C52.3618 36.5804 51.8123 37.0581 51.546 37.3334C50.3747 38.5295 49.197 39.7192 48.0127 40.9024L40.0569 48.94C38.9221 50.0856 37.7977 51.2414 36.6838 52.4074C36.1832 52.929 35.6706 53.4403 35.187 53.978C35.167 53.9382 35.1543 53.8945 35.1396 53.8525C35.1175 53.2621 35.1321 52.666 35.1284 52.0747L35.1226 48.3198C35.1827 47.8725 35.1385 47.1942 35.1325 46.7195C35.3297 46.6423 35.5184 46.5055 35.699 46.3941C36.0988 46.1448 36.497 45.8929 36.8935 45.6383C38.2991 44.7451 39.7141 43.8672 41.1386 43.0047C41.579 42.7423 42.0013 42.4295 42.4632 42.2063C42.6116 42.0779 42.8241 41.9774 42.9941 41.8763L44.0742 41.2334C44.344 41.0717 44.6124 40.9078 44.8795 40.7417C45.0604 40.6288 45.2389 40.5023 45.4318 40.4115L45.482 40.3735C45.2088 39.8209 45.0006 39.2289 44.7633 38.6596C44.4953 38.0165 44.198 37.3824 43.9529 36.7302C44.1158 36.5911 44.3475 36.478 44.5301 36.3607L45.7536 35.5628L47.0743 34.6998C47.2933 34.5565 47.5192 34.382 47.7543 34.2682Z" fill="url(#paint0_linear_85_329)"/>
<path d="M45.4318 40.4116C45.4196 40.4796 43.2843 43.1514 43.0584 43.4487L37.9202 50.1351C37.4319 50.7795 36.9395 51.4235 36.4619 52.0758C36.1963 52.4387 35.9056 52.9154 35.5997 53.2326L35.5776 53.2267C35.5924 53.1578 36.3531 51.9982 36.4487 51.845L40.4995 45.3846C40.9229 44.7253 41.3419 44.0632 41.7566 43.3983C41.9638 43.071 42.3341 42.542 42.4633 42.2064C42.6117 42.078 42.8242 41.9774 42.9941 41.8763L44.0743 41.2334C44.3441 41.0717 44.6125 40.9078 44.8796 40.7417C45.0604 40.6288 45.239 40.5023 45.4318 40.4116Z" fill="url(#paint1_linear_85_329)"/>
<path d="M47.754 34.2682C48.0995 34.4719 48.5053 34.6129 48.8745 34.7707C49.3075 34.9558 49.7339 35.1549 50.1715 35.3292C50.6995 35.5394 51.2373 35.7232 51.7656 35.9318C51.9294 35.9965 52.3915 36.2359 52.5194 36.2359L52.5406 36.274C52.4902 36.2687 52.4422 36.2644 52.3938 36.2828C52.1993 36.3569 52.0023 36.4799 51.8191 36.5789C51.2451 36.8893 50.6924 37.2274 50.1409 37.5754C49.2065 38.1651 48.2482 38.709 47.3044 39.2819C46.8994 39.5315 46.4921 39.7774 46.0826 40.0196C45.8876 40.1364 45.6869 40.2763 45.4818 40.3735C45.2085 39.8209 45.0004 39.2289 44.7631 38.6596C44.4951 38.0165 44.1978 37.3824 43.9526 36.7302C44.1155 36.5911 44.3473 36.478 44.5299 36.3607L45.7534 35.5628L47.0741 34.6998C47.2931 34.5565 47.5189 34.382 47.754 34.2682Z" fill="#3E0758"/>
<path d="M23.2689 26.2148L23.2803 26.1889L24.8947 27.1844C25.1997 27.3734 25.5197 27.5559 25.8119 27.7638C26.4409 28.1363 27.0476 28.5513 27.6681 28.9386C28.031 29.163 28.3918 29.3909 28.7504 29.6222C28.8987 29.7185 29.064 29.8112 29.2014 29.9217L29.2004 29.9342C29.2364 29.9507 29.2619 29.9569 29.2859 29.9894L33.1816 32.4891C33.8214 32.8969 34.4936 33.2663 35.1134 33.7039C36.4178 32.8668 37.7292 32.0409 39.0477 31.2261C39.6098 30.8776 40.1641 30.5152 40.7304 30.1738C40.7832 30.1389 40.8301 30.1133 40.8896 30.0914C40.9265 30.0665 40.9588 30.0156 40.9877 29.9809C41.1159 30.1503 41.198 30.3999 41.2837 30.5959C41.4622 31.003 41.6372 31.4117 41.8087 31.8219L43.0657 34.71C43.3546 35.3818 43.6184 36.0747 43.9454 36.7286L43.9527 36.7301C44.1979 37.3824 44.4951 38.0164 44.7631 38.6595C45.0004 39.2289 45.2086 39.8209 45.4819 40.3734L45.4316 40.4115C45.2388 40.5023 45.0602 40.6287 44.8794 40.7416C44.6123 40.9077 44.3438 41.0716 44.0741 41.2333L42.9939 41.8763C42.8239 41.9773 42.6114 42.0779 42.4631 42.2063C42.0012 42.4295 41.5789 42.7423 41.1384 43.0046C39.7139 43.8672 38.2989 44.7451 36.8934 45.6383C36.4969 45.8928 36.0987 46.1448 35.6988 46.3941C35.5182 46.5055 35.3296 46.6423 35.1324 46.7194C35.1383 47.1941 35.1825 47.8725 35.1224 48.3198L35.1282 52.0747C35.132 52.6659 35.1174 53.262 35.1394 53.8524C35.1541 53.8945 35.1669 53.9381 35.1869 53.978C35.1653 54.004 35.1601 54.0059 35.1301 54.0176C35.0309 53.9753 31.652 50.4588 31.2665 50.07L21.8878 40.6018L19.005 37.6775L18.2444 36.8925C18.0719 36.7144 17.8885 36.5403 17.7349 36.3454L17.7002 36.3115L17.7007 36.2673L17.754 36.2155C18.0343 35.7468 18.2874 35.262 18.55 34.7833L19.8025 32.5034L23.2689 26.2148Z" fill="#5A1087"/>
<path d="M24.7817 40.3746C25.0765 40.4771 25.7074 40.9263 26.0008 41.1053C26.5436 41.4363 27.1242 41.7426 27.6452 42.1051C27.7002 42.1434 27.7416 42.1861 27.783 42.2384L32.6858 49.9576C33.2323 50.8172 33.7919 51.6724 34.3198 52.5432C34.4758 52.8007 34.7075 53.1185 34.8198 53.387C34.7062 53.2949 34.2838 52.6442 34.1495 52.4588C33.4608 51.4955 32.7607 50.5405 32.0493 49.5937C31.6742 49.1005 31.2789 48.6206 30.8932 48.1354L28.0489 44.5729C26.9476 43.1837 25.8936 41.7546 24.7817 40.3746Z" fill="#3E0758"/>
<path d="M27.7827 42.2384C27.8486 42.2265 27.8849 42.2489 27.9432 42.2807C28.2641 42.4556 28.5726 42.6705 28.8832 42.8636L30.5179 43.8734L32.0172 44.8079C32.2993 44.9833 32.5951 45.1522 32.8665 45.3428C32.8916 45.3604 32.9139 45.3791 32.9372 45.399C33.3963 45.6789 33.8517 45.9646 34.3034 46.2563C34.5687 46.4251 34.8406 46.6148 35.1198 46.7582C35.1191 47.2749 35.0934 47.8048 35.1223 48.3199L35.1282 52.0747C35.1319 52.666 35.1173 53.2621 35.1393 53.8525C35.0876 53.7915 35.0502 53.7108 35.0104 53.6413C34.9396 53.5645 34.8999 53.4521 34.8195 53.387C34.7072 53.1184 34.4756 52.8006 34.3195 52.5432C33.7917 51.6723 33.232 50.8171 32.6856 49.9575L27.7827 42.2384Z" fill="#7020A1"/>
<path d="M32.9375 45.3991C33.3966 45.6789 33.852 45.9647 34.3036 46.2563C34.569 46.4252 34.8409 46.6148 35.1201 46.7582C35.1194 47.2749 35.0937 47.8048 35.1226 48.3199L35.1284 52.0748C35.1322 52.666 35.1176 53.2621 35.1396 53.8525C35.0879 53.7915 35.0505 53.7109 35.0107 53.6414L35.0146 53.6133C35.0567 53.6396 35.0774 53.7074 35.1 53.752C35.1375 52.958 34.8452 52.0764 34.6379 51.3144C34.2738 49.9764 33.8798 48.6527 33.4898 47.3223L33.137 46.1137C33.068 45.878 32.9841 45.64 32.9375 45.3991Z" fill="#A037D9"/>
<path d="M29.2002 29.9342C29.2362 29.9507 29.2617 29.9569 29.2856 29.9895L33.1814 32.4891C33.8211 32.8969 34.4933 33.2663 35.1131 33.7039L35.1172 36.2845C35.1168 36.7271 35.1008 37.1757 35.1173 37.6174L35.0983 37.6506C35.1329 38.3062 35.0988 38.9774 35.1001 39.6348C35.1018 40.4147 35.1339 41.1989 35.1139 41.978L35.1509 42.0871C35.1453 42.1777 35.1405 42.2666 35.1441 42.3574L35.1307 42.3718C34.8419 42.1406 34.518 41.9581 34.2101 41.7544C33.5499 41.3181 32.8873 40.8856 32.2222 40.4567C30.679 39.4492 29.1236 38.4607 27.5563 37.4911C27.1361 37.2289 26.724 36.9528 26.3003 36.6966L26.2852 36.6829C26.4114 36.5403 27.3664 34.199 27.511 33.8603L28.7648 30.9324C28.9075 30.5986 29.064 30.2707 29.2002 29.9342Z" fill="#A037D9"/>
<path d="M30.0132 31.3487C30.2605 31.5358 30.801 32.3388 31.0299 32.6301C31.8934 33.7284 32.7895 34.8022 33.6622 35.8933C33.9916 36.3057 34.3235 36.7161 34.6581 37.1243C34.7963 37.2935 34.937 37.5055 35.0989 37.6506C35.1335 38.3062 35.0993 38.9774 35.1007 39.6348C35.1023 40.4147 35.1345 41.1989 35.1144 41.978C35.0136 41.607 34.788 41.2228 34.6197 40.8746L33.8795 39.3183C33.4192 38.3417 32.9652 37.3592 32.4905 36.3897C31.8316 35.0631 31.1804 33.7329 30.5367 32.3989C30.3654 32.0472 30.181 31.702 30.0132 31.3487Z" fill="#7020A1"/>
<path d="M29.2856 29.9894L33.1814 32.4891C33.8211 32.8968 34.4934 33.2662 35.1132 33.7039L35.1172 36.2845C35.1168 36.727 35.1008 37.1756 35.1173 37.6174L35.0984 37.6506C34.9365 37.5054 34.7958 37.2935 34.6576 37.1243C34.323 36.7161 33.991 36.3057 33.6617 35.8933C32.7889 34.8021 31.8928 33.7284 31.0294 32.63C30.8004 32.3388 30.26 31.5358 30.0126 31.3486C29.9661 31.3194 29.3396 30.128 29.2856 29.9894Z" fill="#A037D9"/>
<path d="M40.9878 29.981C41.116 30.1504 41.1981 30.4 41.2838 30.596C41.4623 31.0031 41.6373 31.4118 41.8087 31.8219L43.0658 34.71C43.3547 35.3819 43.6185 36.0748 43.9455 36.7287C43.2504 37.1437 42.5742 37.5922 41.891 38.0265L37.9755 40.5216L36.1387 41.6868C35.8119 41.8951 35.433 42.0989 35.1444 42.3575C35.1408 42.2666 35.1456 42.1777 35.1512 42.0871L35.1142 41.9781C35.1342 41.199 35.1021 40.4148 35.1004 39.6348C35.0991 38.9775 35.1332 38.3062 35.0986 37.6507L35.1176 37.6175C35.1011 37.1757 35.1171 36.7271 35.1175 36.2846L35.1134 33.704C36.4179 32.8669 37.7293 32.0409 39.0478 31.2262C39.6099 30.8777 40.1642 30.5153 40.7305 30.1738C40.7833 30.1389 40.8302 30.1134 40.8896 30.0915C40.9266 30.0666 40.9589 30.0157 40.9878 29.981Z" fill="#A037D9"/>
<path d="M40.7305 30.1737C40.7833 30.1388 40.8302 30.1133 40.8896 30.0914C40.6351 30.556 40.4329 31.0654 40.2087 31.5459C39.8565 32.291 39.4984 33.0333 39.1346 33.7727L36.7452 38.7596C36.2137 39.8681 35.6643 40.97 35.1512 42.087L35.1142 41.978C35.1342 41.1989 35.1021 40.4147 35.1004 39.6347C35.0991 38.9774 35.1332 38.3061 35.0986 37.6506L35.1176 37.6174C35.1011 37.1756 35.1171 36.727 35.1175 36.2845L35.1134 33.7039C36.4179 32.8668 37.7293 32.0409 39.0478 31.2261C39.6099 30.8776 40.1642 30.5152 40.7305 30.1737Z" fill="#3E0758"/>
<path d="M35.1136 33.704C36.4181 32.8668 37.7295 32.0409 39.048 31.2261C39.6101 30.8777 40.1644 30.5153 40.7307 30.1738C40.7445 30.2284 40.7545 30.2581 40.7246 30.3094C40.633 30.4667 40.4468 30.6605 40.3314 30.8157C39.8739 31.4313 39.4002 32.0337 38.9369 32.6448L36.1363 36.2796C35.9353 36.538 35.7384 36.7994 35.5454 37.0638C35.4085 37.2496 35.2751 37.4483 35.1178 37.6174C35.1013 37.1757 35.1173 36.7271 35.1177 36.2845L35.1136 33.704Z" fill="#7020A1"/>
<path d="M23.2689 26.2148L23.2803 26.1889L24.8947 27.1844C25.1997 27.3734 25.5197 27.5559 25.8119 27.7638C26.4409 28.1363 27.0476 28.5513 27.6681 28.9386C28.031 29.163 28.3918 29.3909 28.7504 29.6222C28.8987 29.7185 29.064 29.8112 29.2014 29.9217L29.2004 29.9342C29.0643 30.2707 28.9077 30.5986 28.765 30.9324L27.5112 33.8603C27.3667 34.199 26.4116 36.5402 26.2854 36.6829L26.3005 36.6966L25.3007 39.0859C25.1205 39.5083 24.906 39.9241 24.7617 40.3605C24.6211 40.1898 18.6093 36.7301 17.8831 36.3876C17.8348 36.3649 17.788 36.351 17.7349 36.3454L17.7002 36.3115L17.7007 36.2673L17.754 36.2155C18.0343 35.7468 18.2874 35.262 18.55 34.7833L19.8025 32.5034L23.2689 26.2148Z" fill="#A037D9"/>
<path d="M23.2687 26.2148L23.2801 26.1889L24.8944 27.1844C25.1995 27.3734 25.5195 27.5559 25.8117 27.7638L23.7727 29.9459C23.5222 30.2186 23.0617 30.7999 22.7974 31.0047C22.9301 29.9495 23.0197 28.8841 23.1295 27.826C23.1646 27.4883 23.3104 26.5042 23.2687 26.2148Z" fill="#C491EC"/>
<path d="M22.7883 31.0235C22.7075 32.1024 22.4746 33.1766 22.3509 34.2521C21.9813 34.4052 21.6191 34.575 21.2515 34.7325L19.2576 35.5795L18.4395 35.9361C18.2622 36.0152 18.0855 36.1077 17.9004 36.1669C17.9349 36.0418 18.934 35.083 19.0839 34.9302C20.3366 33.6449 21.5714 32.3427 22.7883 31.0235Z" fill="#E03AEE"/>
<path d="M25.8121 27.7639C26.4411 28.1364 27.0478 28.5514 27.6682 28.9386C28.0312 29.163 28.392 29.3909 28.7505 29.6223C28.8989 29.7185 29.0642 29.8112 29.2015 29.9218L29.2006 29.9342C29.0644 30.2707 28.9079 30.5986 28.7652 30.9324L27.5114 33.8603C27.3668 34.199 26.4118 36.5403 26.2856 36.6829C24.9719 35.8805 23.6404 35.0929 22.3511 34.2522C22.4748 33.1767 22.7077 32.1025 22.7885 31.0236L22.7978 31.0048C23.0621 30.7999 23.5226 30.2187 23.7731 29.9459L25.8121 27.7639Z" fill="#DEB7FC"/>
<defs>
<filter id="filter0_f_85_329" x="0.2" y="0.2" width="69.6" height="69.6" filterUnits="userSpaceOnUse" color-interpolation-filters="sRGB">
<feFlood flood-opacity="0" result="BackgroundImageFix"/>
<feBlend mode="normal" in="SourceGraphic" in2="BackgroundImageFix" result="shape"/>
<feGaussianBlur stdDeviation="6.9" result="effect1_foregroundBlur_85_329"/>
</filter>
<linearGradient id="paint0_linear_85_329" x1="44.8412" y1="45.874" x2="39.3475" y2="41.499" gradientUnits="userSpaceOnUse">
<stop stop-color="#25002B"/>
<stop offset="1" stop-color="#2F056E"/>
</linearGradient>
<linearGradient id="paint1_linear_85_329" x1="46.2463" y1="45.4441" x2="35.0244" y2="47.6937" gradientUnits="userSpaceOnUse">
<stop stop-color="#060015"/>
<stop offset="1" stop-color="#160037"/>
</linearGradient>
</defs>
</svg>
