<svg width="70" height="70" viewBox="0 0 70 70" fill="none" xmlns="http://www.w3.org/2000/svg">
<g filter="url(#filter0_f_85_327)">
<circle cx="35" cy="35" r="21" fill="#2ED14F" fill-opacity="0.3"/>
</g>
<path d="M21.1 25.5L34.7 17L48.3 25.5L53.4 35.7L34.7 54.825L16 35.7L21.1 25.5Z" fill="#072D0A"/>
<path d="M22.3234 26.1381C22.438 26.051 22.5734 25.9794 22.6961 25.9033L23.477 25.4183C24.3366 24.8832 25.2027 24.3509 26.0503 23.7971L31.2718 20.4313C32.0198 19.9487 32.7718 19.4722 33.5276 19.0019C33.9133 18.7606 34.3009 18.4877 34.702 18.2751C34.7158 18.4015 34.7082 18.5455 34.7426 18.6671L34.7297 18.691L34.6515 18.7621C34.3881 18.8164 33.0083 19.8897 32.6748 20.1311C30.1478 21.9507 27.6445 23.8024 25.1649 25.6861C24.5265 26.1619 23.8665 26.613 23.2375 27.1004C23.1119 26.9465 22.4529 26.1896 22.3203 26.1713L22.3234 26.1381Z" fill="#20C847"/>
<path d="M34.7021 18.2751C35.1788 18.5272 35.6329 18.8367 36.0871 19.1273L38.1778 20.4675C40.4112 21.9027 42.6568 23.3186 44.9146 24.7151C45.4815 25.0619 46.0389 25.4261 46.6023 25.7789C46.7791 25.8897 46.9884 26.0633 47.1812 26.1358C46.8369 26.4989 46.4896 26.9182 46.0993 27.2303C45.2954 26.6416 44.5167 26.0197 43.725 25.4151L37.406 20.5853C36.7899 20.1202 36.1741 19.659 35.5486 19.2065C35.3061 19.0311 35.0209 18.7704 34.7428 18.6671C34.7084 18.5455 34.7159 18.4015 34.7021 18.2751Z" fill="#0CA032"/>
<path d="M34.7424 18.6671C35.0206 18.7704 35.3057 19.0311 35.5483 19.2065C36.1738 19.659 36.7896 20.1202 37.4056 20.5853L43.7246 25.4151C44.5164 26.0197 45.2951 26.6416 46.099 27.2303C45.7915 27.5333 45.4974 27.8504 45.1953 28.1589C45.1006 28.2556 44.9917 28.3974 44.8808 28.4719C44.8709 28.4762 44.8609 28.4801 44.8512 28.4847C44.7222 28.5455 44.6757 28.7014 44.5578 28.7681C44.4784 28.7155 44.4517 28.617 44.3512 28.5922C44.1679 28.4507 43.8036 28.021 43.616 27.8263C43.0494 27.2386 42.4796 26.654 41.9067 26.0724L34.7388 18.7332L34.7295 18.691L34.7424 18.6671Z" fill="#20C847"/>
<path d="M23.2375 27.1005C23.8666 26.613 24.5266 26.1619 25.165 25.6862C27.6445 23.8024 30.1478 21.9508 32.6749 20.1312C33.0084 19.8897 34.3881 18.8165 34.6516 18.7621C34.1059 19.4013 33.4879 19.9927 32.9027 20.5964L28.8197 24.7525L25.8695 27.777C25.6393 28.0106 25.411 28.2462 25.1848 28.4836C25.0623 28.6113 24.9308 28.7714 24.789 28.8769L24.7749 28.8783L24.7538 28.8506C24.6198 28.6096 24.371 28.3869 24.1846 28.1854C23.8602 27.8348 23.5245 27.4827 23.2375 27.1005Z" fill="#68FA6F"/>
<path d="M47.1807 26.1358L47.2355 26.2169L50.599 32.7147C50.9002 33.2866 51.2067 33.8557 51.5184 34.422C51.6872 34.7279 51.8864 35.0405 52.0258 35.3596C52.1002 35.4508 52.1519 35.5784 52.1829 35.6906C52.1763 35.7271 52.1675 35.7458 52.1458 35.776C52.099 35.7363 52.0677 35.7098 52.0042 35.7015C51.6952 35.6612 51.271 35.707 50.9521 35.7148C50.2033 35.7331 49.4522 35.7559 48.703 35.7443C48.5502 35.7041 48.3674 35.7232 48.2093 35.7241C48.2083 35.4165 48.1735 35.1099 48.1561 34.803C48.1063 34.0502 48.0687 33.2968 48.043 32.5429C48.0586 32.383 48.0166 32.2172 48.0651 32.0613L48.0503 32.0508C47.8741 32.0916 47.69 32.1081 47.5116 32.1414L45.8953 32.4435C45.0714 32.6018 44.251 32.8076 43.4224 32.939C43.3559 32.9495 43.2996 32.952 43.2334 32.94L43.3504 32.5667C43.7304 31.3115 44.1684 30.0749 44.5465 28.8189L44.351 28.5922C44.4515 28.617 44.4782 28.7155 44.5576 28.7681C44.6755 28.7014 44.722 28.5455 44.851 28.4847C44.8608 28.4801 44.8707 28.4762 44.8806 28.4719C44.9915 28.3974 45.1004 28.2556 45.1951 28.1589C45.4972 27.8504 45.7913 27.5333 46.0988 27.2303C46.4891 26.9182 46.8363 26.4989 47.1807 26.1358Z" fill="#055B1D"/>
<path d="M48.0652 32.0612C48.3558 32.284 48.6258 32.5448 48.9049 32.7826C49.5144 33.2985 50.1197 33.819 50.721 34.3444C51.0476 34.6314 51.3733 34.962 51.7249 35.2152C51.8157 35.2806 51.9194 35.3263 52.0259 35.3596C52.1004 35.4507 52.152 35.5783 52.183 35.6905C52.1764 35.7271 52.1676 35.7458 52.146 35.7759C52.0991 35.7362 52.0679 35.7097 52.0043 35.7014C51.6954 35.6611 51.2712 35.7069 50.9523 35.7147C50.2034 35.733 49.4523 35.7558 48.7032 35.7442C48.5504 35.704 48.3675 35.7232 48.2095 35.724C48.2085 35.4164 48.1736 35.1098 48.1562 34.8029C48.1065 34.0501 48.0688 33.2968 48.0432 32.5428C48.0587 32.383 48.0168 32.2171 48.0652 32.0612Z" fill="url(#paint0_linear_85_327)"/>
<path d="M47.1807 26.1358L47.2356 26.2169C47.2058 26.2703 47.1888 26.3141 47.1901 26.3761C47.198 26.7362 47.311 27.1587 47.3683 27.5191L47.7717 30.1006C47.845 30.5263 47.9112 30.953 47.9703 31.3808C48.0009 31.596 48.0462 31.8195 48.0483 32.0364C47.7191 31.7678 47.4172 31.4601 47.1083 31.1686L45.4833 29.6352C45.1921 29.3635 44.8957 29.0485 44.5698 28.8204C44.6741 28.7049 44.7777 28.5887 44.8806 28.4719C44.9916 28.3974 45.1004 28.2556 45.1952 28.1589C45.4973 27.8504 45.7914 27.5333 46.0988 27.2303C46.4891 26.9182 46.8364 26.4989 47.1807 26.1358Z" fill="#058017"/>
<path d="M44.351 28.5922C44.4515 28.617 44.4782 28.7155 44.5576 28.7681C44.6755 28.7015 44.722 28.5455 44.851 28.4847C44.8608 28.4801 44.8707 28.4762 44.8806 28.472C44.7777 28.5887 44.6741 28.7049 44.5698 28.8204C44.8956 29.0485 45.1921 29.3635 45.4833 29.6352L47.1083 31.1686C47.4172 31.4602 47.7191 31.7678 48.0482 32.0364L48.0503 32.0508C47.8741 32.0916 47.69 32.1082 47.5116 32.1414L45.8953 32.4435C45.0714 32.6018 44.251 32.8076 43.4224 32.939C43.3559 32.9495 43.2996 32.952 43.2334 32.94L43.3504 32.5667C43.7304 31.3115 44.1684 30.0749 44.5465 28.8189L44.351 28.5922Z" fill="url(#paint1_linear_85_327)"/>
<path d="M48.7032 35.7442C49.4524 35.7558 50.2034 35.733 50.9523 35.7147C51.2712 35.7069 51.6954 35.6611 52.0044 35.7014C52.0679 35.7097 52.0992 35.7362 52.146 35.7759C51.9848 35.8789 51.3432 36.5741 51.1542 36.7621L48.2441 39.6572L39.8647 48.0189L36.2282 51.6267C35.7363 52.1114 35.2713 52.6357 34.7567 53.0957C34.7317 53.0705 34.711 53.0593 34.7035 53.0231C34.6897 52.9573 34.711 52.8954 34.7418 52.8376C34.9362 52.4732 35.2175 52.134 35.463 51.8024C35.9951 51.0837 36.5341 50.3727 37.0472 49.6401C37.1877 49.4394 37.3562 49.2512 37.4828 49.0419C39.8396 45.9806 42.2187 42.9367 44.62 39.9102C45.3707 38.969 46.1161 38.0237 46.8563 37.0742C47.1994 36.6372 47.5759 36.2067 47.8915 35.7504C48.1611 35.7488 48.4341 35.7564 48.7032 35.7442Z" fill="url(#paint2_linear_85_327)"/>
<path d="M22.3232 26.1381L22.3202 26.1713C22.4528 26.1896 23.1118 26.9466 23.2374 27.1004C23.5243 27.4827 23.86 27.8348 24.1845 28.1854C24.3709 28.3869 24.6196 28.6096 24.7536 28.8506L24.7747 28.8783L24.7888 28.8768C24.8959 29.1369 24.9797 29.4128 25.0582 29.6828L25.7053 31.6784C25.8333 32.0768 25.943 32.5266 26.1322 32.9007L26.1194 32.9487L26.0961 32.9505C25.4825 33.8463 24.8142 34.7142 24.2354 35.6329L24.1801 35.6745C24.1524 35.6827 24.1169 35.6887 24.0915 35.7016C23.2579 35.7625 22.3329 35.7243 21.4894 35.7281L21.4477 35.7266C21.2068 35.7351 20.9643 35.7317 20.7232 35.734C19.6401 35.7179 18.5561 35.7562 17.4729 35.7469C17.4059 35.7523 17.3392 35.7541 17.2749 35.7755C17.2853 35.6863 17.3359 35.5905 17.3865 35.5169C17.6344 34.9344 17.9704 34.3802 18.2671 33.8209L19.8783 30.7603C20.3929 29.7684 20.9134 28.7796 21.4398 27.7939C21.7205 27.2561 21.992 26.6405 22.3232 26.1381Z" fill="#0CA032"/>
<path d="M17.3865 35.5169C17.6341 35.3606 17.8543 35.0755 18.0714 34.8737C18.7325 34.259 19.4016 33.6506 20.0544 33.0271C20.3577 32.7374 21.013 32.0462 21.3229 31.8524C21.329 31.9134 21.3376 31.9611 21.3605 32.018L21.3592 32.072C21.3566 32.1063 21.359 32.1525 21.3497 32.1849C21.3159 32.1945 21.2992 32.2051 21.2726 32.2285C20.7297 32.7055 20.2161 33.2202 19.6848 33.7105L18.1894 35.099C17.9529 35.3166 17.7045 35.5246 17.4729 35.7469C17.4059 35.7522 17.3392 35.754 17.2749 35.7755C17.2853 35.6863 17.3359 35.5905 17.3865 35.5169Z" fill="#68FA6F"/>
<path d="M17.4729 35.7469C17.7045 35.5246 17.9529 35.3166 18.1894 35.099L19.6848 33.7105C20.216 33.2202 20.7297 32.7055 21.2726 32.2285C21.2992 32.2052 21.3158 32.1946 21.3496 32.1849C21.3452 32.552 21.3147 35.6064 21.3624 35.7002C21.3927 35.7179 21.4128 35.7229 21.4476 35.7265C21.2068 35.735 20.9643 35.7317 20.7232 35.734C19.6401 35.7179 18.556 35.7561 17.4729 35.7469Z" fill="#1DF12A"/>
<path d="M22.3202 26.1713C22.4529 26.1896 23.1118 26.9465 23.2374 27.1004C23.5243 27.4826 23.8601 27.8347 24.1845 28.1854C24.3709 28.3868 24.6196 28.6096 24.7537 28.8505L24.7748 28.8782C24.6786 29.0073 24.5273 29.1221 24.4085 29.2319L23.6716 29.9096L22.2203 31.2422C21.9368 31.5021 21.6556 31.7715 21.3605 32.018C21.3377 31.9611 21.3291 31.9134 21.323 31.8525C21.3581 31.8089 22.1028 27.6404 22.1652 27.2715C22.2243 26.9343 22.2736 26.5957 22.3129 26.2556L22.3202 26.1713Z" fill="#20C847"/>
<path d="M22.3203 26.1713C22.4529 26.1896 23.1119 26.9465 23.2375 27.1004C23.5244 27.4826 23.8602 27.8347 24.1846 28.1854C24.371 28.3868 24.6197 28.6096 24.7537 28.8505C24.5213 28.6629 24.2838 28.363 24.0779 28.1396L23.1239 27.1118C22.8582 26.822 22.6005 26.5244 22.313 26.2556L22.3203 26.1713Z" fill="#68FA6F"/>
<path d="M24.775 28.8782L24.7891 28.8768C24.8961 29.1369 24.9799 29.4127 25.0584 29.6828L25.7055 31.6784C25.8335 32.0768 25.9432 32.5266 26.1324 32.9007L26.1196 32.9487L26.0963 32.9505C25.4828 33.8463 24.8145 34.7142 24.2356 35.6329L24.1804 35.6745C24.1527 35.6827 24.1171 35.6887 24.0917 35.7016C23.2581 35.7624 22.3331 35.7243 21.4896 35.728L21.4479 35.7266C21.4131 35.7229 21.393 35.7179 21.3626 35.7003C21.3149 35.6064 21.3454 32.552 21.3499 32.1849C21.3593 32.1526 21.3568 32.1064 21.3594 32.0721L21.3607 32.0181C21.6558 31.7716 21.9369 31.5022 22.2205 31.2422L23.6717 29.9096L24.4086 29.2319C24.5275 29.1222 24.6788 29.0073 24.775 28.8782Z" fill="#68FA6F"/>
<path d="M21.4006 32.0831C22.4699 32.2685 23.537 32.4654 24.6021 32.6739L25.5724 32.8492C25.7435 32.8798 25.9298 32.9013 26.0961 32.9505C25.4825 33.8462 24.8142 34.7142 24.2354 35.6329L24.1801 35.6745C24.098 35.5433 23.9892 35.4203 23.8938 35.2981C23.6735 35.0153 23.4494 34.7356 23.2216 34.4589C22.8077 33.9493 22.4109 33.4247 22.0089 32.9057C21.8042 32.6414 21.5663 32.3732 21.4006 32.0831Z" fill="#20C847"/>
<path d="M34.7295 18.691L34.7388 18.7332C34.7192 19.4791 34.7077 20.2251 34.7041 20.9712C34.7008 21.3321 34.7099 21.6967 34.6951 22.0569C34.7279 22.5433 34.7001 23.0486 34.6985 23.537C34.7005 23.6632 34.7438 24.0587 34.671 24.1543C34.6246 24.1561 34.6162 24.1637 34.58 24.1955C34.4408 24.3177 34.3176 24.4687 34.1873 24.6013L33.3341 25.465C32.3365 26.4741 31.3492 27.4932 30.3723 28.5223L27.5074 31.4724L26.6586 32.343C26.483 32.5219 26.2862 32.704 26.1322 32.9007C25.943 32.5266 25.8333 32.0768 25.7053 31.6784L25.0582 29.6828C24.9797 29.4127 24.8958 29.1369 24.7888 28.8768C24.9306 28.7714 25.0621 28.6113 25.1846 28.4836C25.4108 28.2461 25.6391 28.0106 25.8693 27.7769L28.8195 24.7525L32.9025 20.5964C33.4877 19.9927 34.1057 19.4013 34.6514 18.7621L34.7295 18.691Z" fill="#B5FEB8"/>
<path d="M24.0915 35.7015C24.1254 35.7238 24.1324 35.7361 24.1457 35.7722C24.233 36.0096 25.2281 36.966 25.475 37.2213C27.2216 39.0276 29.0143 40.7854 30.7743 42.5778L31.5768 43.3819C31.6866 43.4916 31.8336 43.6116 31.9239 43.7377C31.8972 43.9228 31.91 44.1235 31.9105 44.3105C31.9126 44.6162 31.9126 44.9218 31.9105 45.2275C31.8993 46.4831 31.8773 47.7469 31.9124 49.0021C32.0212 49.2019 32.1876 49.3906 32.3256 49.5718C32.5366 49.8493 32.7452 50.1287 32.9514 50.4099C33.2322 50.7873 33.5104 51.1667 33.786 51.548C34.0714 51.951 34.3219 52.3605 34.6764 52.7095C34.6802 52.8424 34.6724 52.9711 34.6606 53.1035C34.4969 52.9067 34.2804 52.7315 34.0978 52.5497C33.5548 52.0093 32.9901 51.479 32.4626 50.9244C32.2784 50.8078 31.8199 50.289 31.6298 50.1021C30.7786 49.2813 29.936 48.4519 29.1019 47.6138L22.0312 40.546L18.8116 37.3045C18.3012 36.7947 17.8031 36.2664 17.2749 35.7755C17.3392 35.754 17.4059 35.7522 17.4729 35.7469C18.5561 35.7561 19.6401 35.7179 20.7232 35.7339C20.9643 35.7317 21.2068 35.735 21.4477 35.7265L21.4894 35.728C22.3329 35.7243 23.2579 35.7624 24.0915 35.7015Z" fill="#0CA032"/>
<path d="M21.4478 35.7265L21.4896 35.728C21.6614 35.9807 21.8738 36.2103 22.0598 36.4534C22.5983 37.1639 23.144 37.8688 23.697 38.5681L28.3869 44.5066C29.2235 45.5879 30.0665 46.6642 30.916 47.7355C31.0911 47.9607 31.7704 48.8969 31.9125 49.0021C32.0214 49.2019 32.1878 49.3906 32.3257 49.5718C32.5368 49.8494 32.7454 50.1287 32.9516 50.4099C33.2324 50.7874 33.5105 51.1667 33.7861 51.548C34.0715 51.951 34.3221 52.3606 34.6766 52.7096C34.6804 52.8425 34.6725 52.9711 34.6607 53.1035C34.497 52.9067 34.2805 52.7315 34.0979 52.5497C33.5549 52.0093 32.9902 51.4791 32.4628 50.9244L32.4969 50.9144L32.5788 50.9855C32.5466 50.814 30.657 48.6592 30.3585 48.3007C29.4966 47.2731 28.645 46.237 27.8038 45.1924L26.2488 43.2398L22.2321 38.3201L20.8474 36.6381C20.6148 36.3547 20.3439 36.0668 20.1536 35.7541C20.3435 35.7495 20.5339 35.7476 20.7234 35.734C20.9644 35.7317 21.207 35.735 21.4478 35.7265Z" fill="#058017"/>
<path d="M24.0915 35.7015C24.1254 35.7238 24.1325 35.7361 24.1458 35.7722C24.2331 36.0096 25.2282 36.966 25.4751 37.2213C27.2217 39.0276 29.0144 40.7854 30.7744 42.5778L31.5769 43.3819C31.6867 43.4916 31.8337 43.6116 31.924 43.7377C31.8973 43.9228 31.9101 44.1235 31.9106 44.3105C31.9127 44.6162 31.9126 44.9218 31.9106 45.2275C31.8994 46.4832 31.8774 47.7469 31.9125 49.0021C31.7703 48.8969 31.091 47.9606 30.916 47.7354C30.0665 46.6642 29.2234 45.5879 28.3869 44.5066L23.6969 38.5681C23.144 37.8688 22.5983 37.1639 22.0598 36.4534C21.8738 36.2103 21.6613 35.9807 21.4895 35.728C22.333 35.7243 23.258 35.7624 24.0915 35.7015Z" fill="#20C847"/>
<path d="M48.0507 32.0508L48.0655 32.0612C48.017 32.2171 48.059 32.383 48.0434 32.5428C48.0691 33.2968 48.1067 34.0502 48.1565 34.8029C48.1739 35.1099 48.2087 35.4165 48.2097 35.724C48.3678 35.7232 48.5506 35.7041 48.7034 35.7442C48.4343 35.7564 48.1613 35.7488 47.8917 35.7504C47.5761 36.2068 47.1996 36.6373 46.8565 37.0742C46.1163 38.0237 45.3709 38.9691 44.6202 39.9103C42.2189 42.9367 39.8398 45.9806 37.483 49.042C37.3564 49.2512 37.1879 49.4394 37.0474 49.6401C36.5343 50.3728 35.9953 51.0838 35.4632 51.8024C35.2177 52.134 34.9364 52.4732 34.7421 52.8376C34.7113 52.8954 34.69 52.9574 34.7037 53.0232C34.7112 53.0594 34.7319 53.0705 34.7569 53.0957L34.7144 53.125L34.6608 53.1034C34.6726 52.9711 34.6804 52.8424 34.6766 52.7095C34.3221 52.3605 34.0716 51.951 33.7862 51.548C33.5106 51.1667 33.2324 50.7873 32.9516 50.4098C32.7454 50.1287 32.5368 49.8493 32.3258 49.5718C32.1878 49.3906 32.0214 49.2018 31.9126 49.0021C31.8775 47.7469 31.8995 46.4831 31.9107 45.2274C31.9127 44.9218 31.9127 44.6161 31.9107 44.3105C31.9102 44.1235 31.8974 43.9228 31.9241 43.7377C32.3556 44.1781 32.7877 44.67 33.2504 45.0736C33.2501 45.0623 33.2439 45.0314 33.2387 45.0217C33.1782 44.908 32.9234 44.7123 32.8193 44.6076C32.5713 44.3581 32.3301 44.0996 32.0838 43.848L32.0905 43.8273L32.1525 43.8219C32.168 43.8046 32.1839 43.7875 32.2 43.7708C32.352 43.7784 33.1321 44.7423 33.3111 44.8126C33.318 44.8153 33.3255 44.8162 33.3327 44.818C33.2053 44.6636 33.0472 44.5225 32.9069 44.379C32.7163 44.184 32.5295 43.9744 32.3233 43.7963L33.5211 42.6208C33.9031 42.2393 34.2789 41.8475 34.6833 41.4896L34.6928 41.4821C34.9218 41.3915 38.668 37.4915 39.185 36.9769L42.0847 34.1147C42.4565 33.7453 42.8397 33.3846 43.2009 33.005L43.2156 32.9564L43.2338 32.94C43.3 32.9519 43.3563 32.9495 43.4228 32.9389C44.2514 32.8076 45.0718 32.6018 45.8957 32.4434L47.512 32.1413C47.6904 32.1081 47.8745 32.0916 48.0507 32.0508Z" fill="#20C847"/>
<path d="M37.0345 43.871C37.6508 43.1996 38.3088 42.5698 38.947 41.9198C40.4795 40.345 42.027 38.7852 43.5896 37.2402C43.8523 36.9791 44.1091 36.7124 44.3601 36.4402C44.5411 36.2452 44.9606 35.7325 45.1691 35.6099L45.2605 35.7443C44.8727 36.1738 44.514 36.6296 44.1177 37.0514C43.4142 37.8002 42.6777 38.5221 41.9514 39.2489L39.5977 41.637L38.1093 43.1505C37.916 43.3467 37.6333 43.5873 37.4705 43.7984L34.7162 46.5988C34.444 46.3244 34.1885 46.0315 33.9187 45.7541C33.6989 45.5283 33.4537 45.3137 33.2505 45.0737C33.2503 45.0624 33.244 45.0314 33.2389 45.0218C33.1783 44.908 32.9235 44.7124 32.8194 44.6076C32.5715 44.3581 32.3303 44.0996 32.084 43.8481L32.0907 43.8273L32.1527 43.8219C32.1682 43.8046 32.184 43.7876 32.2002 43.7708C32.3521 43.7784 33.1323 44.7423 33.3113 44.8126C33.3182 44.8153 33.3257 44.8162 33.3329 44.8181C33.5839 45.0068 33.8168 45.279 34.0405 45.502C34.2447 45.7054 34.4666 45.9012 34.6622 46.1113L34.7051 46.1345L34.7442 46.1103C35.0328 45.8885 35.3013 45.594 35.5622 45.3391C36.0584 44.8553 36.5492 44.3659 37.0345 43.871Z" fill="#1DF12A"/>
<path d="M34.6832 41.4897C34.7021 41.5006 34.7234 41.5103 34.7389 41.5257C34.7424 41.6643 34.7471 41.802 34.731 41.9401C34.7122 42.414 34.7367 42.8938 34.7443 43.368C34.7591 44.2783 34.7763 45.2007 34.744 46.1103L34.7049 46.1345L34.662 46.1113C34.4664 45.9013 34.2445 45.7054 34.0403 45.502C33.8166 45.279 33.5837 45.0068 33.3327 44.8181C33.2053 44.6636 33.0472 44.5226 32.9068 44.379C32.7162 44.184 32.5295 43.9745 32.3232 43.7963L33.5211 42.6208C33.9031 42.2393 34.2788 41.8476 34.6832 41.4897Z" fill="#0CA032"/>
<path d="M34.6622 46.1114C34.6443 45.8289 34.659 45.5371 34.6594 45.2538L34.6641 43.6368L34.6679 42.5339C34.6687 42.2234 34.6555 41.903 34.714 41.597C34.7167 41.7117 34.7236 41.8257 34.7312 41.9401C34.7124 42.414 34.7368 42.8938 34.7445 43.368C34.7592 44.2783 34.7765 45.2007 34.7441 46.1103L34.705 46.1345L34.6622 46.1114Z" fill="#013C1A"/>
<path d="M43.3379 33.1696C43.759 33.1622 44.666 32.9205 45.1258 32.8233C46.0709 32.6236 47.0188 32.4525 47.9576 32.2207L47.8206 32.4073C47.5631 32.6802 47.3414 33.0114 47.1062 33.3056C46.7185 33.7903 46.3156 34.2625 45.9226 34.743C45.6897 35.0278 45.454 35.3628 45.1722 35.6006C44.9131 35.2607 43.3935 33.3903 43.3379 33.1696Z" fill="#0CA032"/>
<path d="M31.9241 43.7377C32.3556 44.1781 32.7877 44.67 33.2504 45.0736C33.4536 45.3137 33.6988 45.5283 33.9185 45.7541C34.1883 46.0314 34.4438 46.3244 34.716 46.5988L37.4703 43.7984C37.4998 43.8727 37.4713 47.6317 37.4692 47.9992C37.4676 48.2591 37.4239 48.8204 37.483 49.042C37.3564 49.2513 37.1879 49.4395 37.0474 49.6401C36.5343 50.3728 35.9953 51.0838 35.4632 51.8025C35.2177 52.1341 34.9364 52.4733 34.7421 52.8377C34.7113 52.8954 34.69 52.9574 34.7037 53.0232C34.7112 53.0594 34.7319 53.0705 34.7569 53.0957L34.7144 53.1251L34.6608 53.1034C34.6726 52.9711 34.6804 52.8424 34.6766 52.7095C34.3221 52.3605 34.0716 51.951 33.7862 51.548C33.5106 51.1667 33.2324 50.7873 32.9516 50.4099C32.7454 50.1287 32.5368 49.8493 32.3258 49.5718C32.1878 49.3906 32.0214 49.2019 31.9126 49.0021C31.8775 47.7469 31.8995 46.4831 31.9107 45.2274C31.9127 44.9218 31.9127 44.6162 31.9107 44.3105C31.9102 44.1235 31.8974 43.9228 31.9241 43.7377Z" fill="#013C1A"/>
<path d="M31.9241 43.7377C32.3556 44.1781 32.7877 44.67 33.2504 45.0736C33.4536 45.3137 33.6988 45.5283 33.9185 45.7541C34.1883 46.0314 34.4438 46.3244 34.716 46.5988C34.6595 46.7814 34.6912 47.8265 34.6896 48.1102C34.6775 49.6433 34.6732 51.1764 34.6766 52.7095C34.3221 52.3605 34.0716 51.951 33.7862 51.548C33.5106 51.1667 33.2324 50.7873 32.9516 50.4099C32.7454 50.1287 32.5368 49.8493 32.3258 49.5718C32.1878 49.3906 32.0214 49.2019 31.9126 49.0021C31.8775 47.7469 31.8995 46.4831 31.9107 45.2274C31.9127 44.9218 31.9127 44.6162 31.9107 44.3105C31.9102 44.1235 31.8974 43.9228 31.9241 43.7377Z" fill="#055B1D"/>
<path d="M45.2603 35.7444C46.1341 35.782 47.0165 35.7417 47.8917 35.7505C47.5761 36.2069 47.1996 36.6374 46.8565 37.0743C46.1163 38.0238 45.3709 38.9691 44.6202 39.9104C42.2189 42.9368 39.8398 45.9807 37.483 49.0421C37.4239 48.8204 37.4676 48.2591 37.4691 47.9993C37.4713 47.6318 37.4997 43.8727 37.4703 43.7985C37.6332 43.5874 37.9158 43.3468 38.1092 43.1505L39.5975 41.637L41.9513 39.2489C42.6775 38.5222 43.4141 37.8002 44.1175 37.0515C44.5138 36.6297 44.8725 36.1739 45.2603 35.7444Z" fill="url(#paint3_linear_85_327)"/>
<path d="M34.7389 18.7332L41.9068 26.0724C42.4798 26.654 43.0495 27.2386 43.6162 27.8263C43.8037 28.0209 44.1681 28.4507 44.3513 28.5921L44.5468 28.8189C44.1687 30.0749 43.7307 31.3114 43.3507 32.5666L43.2337 32.94L43.2156 32.9565L43.2008 33.005C42.8396 33.3846 42.4564 33.7453 42.0846 34.1147L39.1849 36.9769C38.6679 37.4915 34.9217 41.3915 34.6927 41.4821L34.6832 41.4896C34.2788 41.8475 33.903 42.2393 33.521 42.6208L32.3232 43.7963C32.5294 43.9744 32.7162 44.184 32.9068 44.379C33.0472 44.5225 33.2052 44.6636 33.3327 44.818C33.3255 44.8162 33.3179 44.8153 33.3111 44.8126C33.132 44.7423 32.3519 43.7784 32.1999 43.7708C32.1838 43.7875 32.1679 43.8046 32.1524 43.8219L32.0904 43.8273L32.0837 43.848C32.3301 44.0996 32.5712 44.3581 32.8192 44.6076C32.9233 44.7123 33.1781 44.908 33.2387 45.0217C33.2438 45.0314 33.25 45.0623 33.2503 45.0736C32.7876 44.67 32.3555 44.1781 31.924 43.7377C31.8337 43.6116 31.6867 43.4916 31.5769 43.3819L30.7744 42.5777C29.0144 40.7854 27.2217 39.0276 25.4751 37.2213C25.2282 36.9659 24.2331 36.0096 24.1458 35.7722C24.1325 35.7361 24.1255 35.7238 24.0916 35.7015C24.117 35.6886 24.1525 35.6826 24.1802 35.6744L24.2355 35.6328C24.8143 34.7142 25.4826 33.8462 26.0962 32.9505L26.1195 32.9487L26.1323 32.9007C26.2863 32.704 26.4831 32.5218 26.6587 32.3429L27.5075 31.4724L30.3724 28.5222C31.3493 27.4931 32.3366 26.474 33.3342 25.4649L34.1874 24.6013C34.3177 24.4686 34.4409 24.3176 34.5801 24.1954C34.6164 24.1637 34.6247 24.156 34.6711 24.1542C34.7439 24.0586 34.7006 23.6631 34.6986 23.537C34.7002 23.0485 34.728 22.5433 34.6952 22.0569C34.71 21.6966 34.7009 21.332 34.7042 20.9712C34.7078 20.225 34.7194 19.4791 34.7389 18.7332Z" fill="#68FA6F"/>
<path d="M34.7115 26.6402C34.7128 26.348 34.6821 24.3784 34.7352 24.2585C35.8359 25.4141 36.9473 26.5594 38.0693 27.6944C38.4098 28.03 38.7437 28.3722 39.0709 28.7208C39.3155 28.9798 39.5727 29.2267 39.8212 29.482C40.4194 30.1061 41.0223 30.7256 41.63 31.3405C42.1457 31.8675 42.6391 32.4121 43.1666 32.9282L43.2157 32.9565L43.201 33.005C42.8398 33.3847 42.4566 33.7453 42.0848 34.1148L39.1851 36.9769C38.668 37.4915 34.9219 41.3916 34.6929 41.4821C34.6966 41.4372 34.6951 41.391 34.6958 41.3459C34.6745 40.7939 34.6959 40.2347 34.7009 39.682C34.7318 39.4212 34.7143 39.1439 34.7138 38.8808C34.7107 38.3925 34.711 37.9042 34.715 37.4159C34.7123 35.9521 34.7368 34.4863 34.7167 33.0227L34.7074 33.0099C34.7571 32.3478 34.7049 31.6202 34.695 30.9528C34.6806 29.9866 34.6953 29.0183 34.6968 28.0519C34.6976 27.5889 34.667 27.0997 34.7115 26.6402Z" fill="#1DF12A"/>
<path d="M26.1195 32.9487L26.2112 33.0342C26.9192 33.0495 27.6265 33.0245 28.3343 33.0271L32.8626 33.0168C33.474 33.0132 34.087 33.0229 34.6983 33.0059L34.7072 33.0099L34.7165 33.0227C34.7366 34.4862 34.7122 35.952 34.7148 37.4159C34.7109 37.9042 34.7105 38.3925 34.7137 38.8808C34.7142 39.1438 34.7317 39.4212 34.7007 39.6819C34.6958 40.2346 34.6743 40.7939 34.6956 41.3459C34.695 41.391 34.6964 41.4372 34.6927 41.4821L34.6832 41.4896C34.2788 41.8475 33.903 42.2393 33.521 42.6208L32.3232 43.7963C32.5294 43.9744 32.7162 44.184 32.9068 44.379C33.0472 44.5225 33.2052 44.6636 33.3327 44.818C33.3255 44.8162 33.3179 44.8153 33.311 44.8126C33.132 44.7423 32.3519 43.7784 32.1999 43.7708C32.1838 43.7875 32.1679 43.8046 32.1524 43.8219L32.0904 43.8273L32.0837 43.848C32.33 44.0996 32.5712 44.3581 32.8192 44.6076C32.9233 44.7123 33.1781 44.908 33.2386 45.0217C33.2438 45.0314 33.25 45.0623 33.2503 45.0736C32.7876 44.67 32.3555 44.1781 31.924 43.7377C31.8337 43.6116 31.6867 43.4916 31.5769 43.3819L30.7744 42.5777C29.0144 40.7854 27.2217 39.0276 25.4751 37.2213C25.2282 36.9659 24.2331 36.0096 24.1458 35.7722C24.1325 35.7361 24.1255 35.7238 24.0916 35.7015C24.117 35.6886 24.1525 35.6826 24.1802 35.6744L24.2355 35.6328C24.8143 34.7142 25.4826 33.8462 26.0962 32.9505L26.1195 32.9487Z" fill="url(#paint4_linear_85_327)"/>
<path d="M24.2355 35.6328C24.5309 35.8892 24.8011 36.1838 25.0769 36.4611C25.6206 37.0072 26.1607 37.5567 26.6973 38.1098L30.9811 42.4243C31.1669 42.6107 32.2039 43.7272 32.3232 43.7963C32.5294 43.9744 32.7162 44.184 32.9068 44.379C33.0472 44.5226 33.2052 44.6636 33.3327 44.8181C33.3255 44.8162 33.3179 44.8153 33.3111 44.8126C33.132 44.7423 32.3519 43.7784 32.1999 43.7708C32.1838 43.7876 32.1679 43.8046 32.1524 43.8219L32.0904 43.8273L32.0837 43.848C32.3301 44.0996 32.5712 44.3581 32.8192 44.6076C32.9233 44.7123 33.1781 44.908 33.2387 45.0217C33.2438 45.0314 33.25 45.0623 33.2503 45.0736C32.7876 44.67 32.3555 44.1781 31.924 43.7377C31.8337 43.6116 31.6867 43.4916 31.5769 43.3819L30.7744 42.5778C29.0144 40.7854 27.2217 39.0276 25.4751 37.2213C25.2282 36.966 24.2331 36.0096 24.1458 35.7722C24.1325 35.7361 24.1255 35.7238 24.0916 35.7015C24.117 35.6887 24.1525 35.6826 24.1802 35.6744L24.2355 35.6328Z" fill="#68FA6F"/>
<path d="M26.2112 33.0343C26.9191 33.0496 27.6265 33.0246 28.3342 33.0272C28.4478 33.2089 28.6257 33.3774 28.7684 33.5381C29.1782 34.0032 29.6014 34.456 30.0377 34.8963L33.0828 38.0025C33.4329 38.361 33.7802 38.7222 34.1245 39.0863C34.3101 39.282 34.4951 39.5081 34.7007 39.6821C34.6957 40.2347 34.6743 40.794 34.6956 41.346L34.6775 41.4082L34.6465 41.4236C34.4332 41.2403 34.238 41.0272 34.0386 40.8286C33.5003 40.2925 32.9832 39.7369 32.4459 39.2C30.3787 37.1343 28.3559 35.0213 26.2112 33.0343Z" fill="#68FA6F"/>
<path d="M34.6982 33.0059L34.7072 33.0099L34.7165 33.0227C34.7366 34.4862 34.7121 35.952 34.7148 37.4159C34.7108 37.9042 34.7105 38.3925 34.7136 38.8808C34.7141 39.1438 34.7316 39.4212 34.7007 39.6819C34.4952 39.508 34.3101 39.2819 34.1245 39.0862C33.7802 38.7221 33.4329 38.3608 33.0828 38.0023L30.0377 34.8962C29.6014 34.4559 29.1782 34.0031 28.7684 33.538C28.6257 33.3772 28.4478 33.2087 28.3342 33.0271L32.8625 33.0168C33.474 33.0132 34.087 33.0229 34.6982 33.0059Z" fill="#20C847"/>
<defs>
<filter id="filter0_f_85_327" x="0.2" y="0.2" width="69.6" height="69.6" filterUnits="userSpaceOnUse" color-interpolation-filters="sRGB">
<feFlood flood-opacity="0" result="BackgroundImageFix"/>
<feBlend mode="normal" in="SourceGraphic" in2="BackgroundImageFix" result="shape"/>
<feGaussianBlur stdDeviation="6.9" result="effect1_foregroundBlur_85_327"/>
</filter>
<linearGradient id="paint0_linear_85_327" x1="50.9808" y1="36.6443" x2="47.5545" y2="32.534" gradientUnits="userSpaceOnUse">
<stop stop-color="#0B9E06"/>
<stop offset="1" stop-color="#0CD80A"/>
</linearGradient>
<linearGradient id="paint1_linear_85_327" x1="45.0325" y1="28.7771" x2="45.6358" y2="32.5481" gradientUnits="userSpaceOnUse">
<stop stop-color="#08C403"/>
<stop offset="1" stop-color="#089908"/>
</linearGradient>
<linearGradient id="paint2_linear_85_327" x1="40.3617" y1="42.7229" x2="46.327" y2="46.0486" gradientUnits="userSpaceOnUse">
<stop stop-color="#001000"/>
<stop offset="1" stop-color="#067B38"/>
</linearGradient>
<linearGradient id="paint3_linear_85_327" x1="44.2098" y1="45.1033" x2="40.451" y2="38.5302" gradientUnits="userSpaceOnUse">
<stop stop-color="#035726"/>
<stop offset="1" stop-color="#017639"/>
</linearGradient>
<linearGradient id="paint4_linear_85_327" x1="24.7842" y1="34.4863" x2="33.8117" y2="42.3986" gradientUnits="userSpaceOnUse">
<stop stop-color="#07B543"/>
<stop offset="1" stop-color="#21FD52"/>
</linearGradient>
</defs>
</svg>
