<svg width="70" height="70" viewBox="0 0 70 70" fill="none" xmlns="http://www.w3.org/2000/svg">
<g filter="url(#filter0_f_85_328)">
<circle cx="35" cy="35" r="21" fill="#1048EE" fill-opacity="0.3"/>
</g>
<path d="M26.625 20H42.775L49.15 26.375L53.4 34.45L34.7 54.85L16 34.875L20.25 26.375L26.625 20Z" fill="#041461"/>
<path d="M47.0571 34.3436C47.2639 33.4916 48.4204 27.68 48.5809 27.4698C48.7353 27.6812 48.8419 27.9746 48.9576 28.2112L49.6602 29.6282L50.8665 32.089C51.2494 32.8573 51.6495 33.6227 52.0085 34.4022L51.998 34.4342C51.7663 34.3812 50.8721 34.4256 50.574 34.4265L47.0293 34.4305L47.0571 34.3436Z" fill="#0723AA"/>
<path d="M20.7852 27.4839C20.855 27.6656 20.8842 27.8736 20.9256 28.0646L21.1699 29.2032L21.9486 32.5457C22.0811 33.1205 22.1786 33.7208 22.3416 34.2866L22.3447 34.4258C21.7901 34.4579 21.223 34.4368 20.667 34.4362L17.2749 34.4329C17.3325 34.2381 17.4644 34.033 17.5574 33.85L18.1799 32.6224C18.7436 31.4801 19.3168 30.3426 19.8997 29.21C20.1911 28.6366 20.4643 28.0409 20.7852 27.4839Z" fill="#1048EE"/>
<path d="M42.2822 21.0678C42.837 21.6124 43.384 22.1648 43.9233 22.7247L47.3897 26.2701C47.6108 26.4921 48.4075 27.3642 48.5809 27.4699C48.4205 27.68 47.2639 33.4916 47.0572 34.3436L47.025 34.3096C47.016 34.0559 46.8498 33.6997 46.7643 33.4498C46.5246 32.7499 46.2774 32.0528 46.0226 31.3582L43.1041 23.2632C42.9494 22.8417 42.7901 22.422 42.6264 22.004C42.5086 21.7062 42.3293 21.3846 42.2822 21.0678Z" fill="#1D4FB0"/>
<path d="M20.7852 27.4839C21.2907 26.9174 21.8519 26.3849 22.3843 25.8433L25.2729 22.887C25.9163 22.2334 26.5873 21.5925 27.2028 20.9133C27.1495 21.2889 26.817 21.9921 26.6758 22.3797L25.2296 26.3598L23.2161 31.895L22.5828 33.6126C22.502 33.8309 22.4386 34.0782 22.3416 34.2866C22.1786 33.7208 22.0811 33.1205 21.9486 32.5457L21.1699 29.2032L20.9256 28.0646C20.8842 27.8736 20.855 27.6656 20.7852 27.4839Z" fill="#4194F5"/>
<path d="M27.2812 20.85C27.6226 20.8952 27.9881 20.8718 28.3327 20.872L30.1881 20.8723L34.4724 20.8693C35.2748 20.8605 36.0772 20.8584 36.8797 20.8629C37.3136 20.8625 37.7521 20.8455 38.1852 20.8613C37.8728 20.9009 37.5307 20.8761 37.2147 20.8762L35.3799 20.8757C35.2085 20.8756 34.8356 20.8428 34.6894 20.8849C34.6668 20.9184 34.6738 20.9177 34.6784 20.9556L34.69 20.9769C34.6593 21.5917 34.6838 22.2219 34.6867 22.8379L34.6795 25.8567C34.6774 26.0724 34.7283 26.6164 34.6807 26.7883C33.9841 26.8023 33.2845 26.7883 32.5876 26.7857C31.7774 26.7866 30.9672 26.7807 30.157 26.7682L30.1318 26.7344L30.1191 26.6918L30.1258 26.6814C29.9992 26.5405 29.4927 25.3389 29.3747 25.0932C29.2425 24.8179 29.0951 24.5504 28.9618 24.2758C28.4073 23.131 27.8471 21.9891 27.2812 20.85Z" fill="#4194F5"/>
<path d="M34.6784 20.9556L34.69 20.9769C34.6593 21.5917 34.6838 22.2219 34.6867 22.8379L34.6795 25.8567C34.6774 26.0724 34.7283 26.6164 34.6807 26.7883C33.9841 26.8023 33.2845 26.7883 32.5876 26.7857C31.7774 26.7865 30.9672 26.7807 30.157 26.7682L30.1318 26.7344L30.1191 26.6918L30.1258 26.6814C30.5634 26.191 30.9582 25.6399 31.364 25.1224L33.4421 22.4847L34.1201 21.6176C34.2974 21.3912 34.4704 21.155 34.6784 20.9556Z" fill="#9EC1F1"/>
<path d="M38.1854 20.8613L40.6968 20.8661C41.1355 20.8682 41.607 20.9044 42.0414 20.8614C41.7099 21.4928 41.426 22.1468 41.1268 22.7938L39.8783 25.4677C39.7677 25.7059 39.4045 26.5901 39.2988 26.6982L39.295 26.7112L39.2529 26.7752C38.8333 26.8013 38.4059 26.7874 37.9853 26.7878L35.8084 26.789C35.4374 26.7892 35.0632 26.7792 34.6926 26.7912L34.6809 26.7882C34.7285 26.6164 34.6776 26.0724 34.6796 25.8567L34.6869 22.8379C34.6839 22.2218 34.6595 21.5917 34.6902 20.9769L34.6786 20.9556C34.674 20.9177 34.667 20.9184 34.6895 20.8848C34.8357 20.8428 35.2087 20.8756 35.38 20.8757L37.2148 20.8761C37.5309 20.8761 37.8729 20.9009 38.1854 20.8613Z" fill="#0723AA"/>
<path d="M34.6901 20.977C34.8715 21.1492 35.0226 21.3701 35.1789 21.5658L36.023 22.6219L38.2206 25.3481C38.5813 25.7963 38.9291 26.2577 39.2987 26.6983L39.2949 26.7113L39.2529 26.7752C38.8332 26.8014 38.4058 26.7875 37.9852 26.7879L35.8083 26.7891C35.4374 26.7892 35.0632 26.7793 34.6925 26.7913L34.6808 26.7883C34.7284 26.6164 34.6775 26.0725 34.6796 25.8568L34.6868 22.8379C34.6839 22.2219 34.6594 21.5917 34.6901 20.977Z" fill="#4194F5"/>
<path d="M22.3447 34.4257L22.3545 34.4257C22.5197 34.6066 22.6508 34.8406 22.7846 35.0462C23.0504 35.4548 23.3077 35.869 23.5756 36.2762L26.9643 41.4637L31.7504 48.7557C32.4668 49.82 33.1668 50.895 33.8505 51.9806C34.0923 52.366 34.4346 52.8432 34.631 53.24C34.6424 53.2715 34.6502 53.2897 34.6702 53.3175C34.693 53.3454 34.7093 53.366 34.7248 53.3989C34.6987 53.4225 34.715 53.4133 34.673 53.4208C34.4744 53.2347 34.2977 53.0177 34.1149 52.8155C33.8218 52.4903 33.5265 52.1672 33.2289 51.8461L30.1586 48.5102L21.4679 39.0315C20.0716 37.4986 18.6967 35.942 17.2749 34.4328L20.667 34.4361C21.223 34.4367 21.7901 34.4579 22.3447 34.4257Z" fill="#0723AA"/>
<path d="M47.029 34.4305L50.5737 34.4265C50.8718 34.4256 51.766 34.3812 51.9977 34.4342C48.6366 38.2438 45.2342 42.016 41.7904 45.751C39.4447 48.3084 37.0427 50.8166 34.7245 53.399C34.709 53.3661 34.6927 53.3455 34.6699 53.3175L34.685 53.2591C34.8342 53.072 34.9484 52.8324 35.0711 52.6255C35.264 52.3035 35.4612 51.9842 35.6629 51.6677C36.326 50.6151 37.0223 49.5789 37.7102 48.5421L44.5086 38.2815C45.3556 37.0034 46.1633 35.6957 47.029 34.4305Z" fill="#00015A"/>
<path d="M22.3545 34.4258C22.8534 34.4522 23.364 34.4292 23.864 34.4288L26.7877 34.4296C27.2127 34.4299 27.6479 34.4113 28.0716 34.4371C28.6021 35.9309 29.1792 37.4091 29.7168 38.9005L32.6762 47.3297C33.1941 48.7555 33.6875 50.1896 34.1562 51.6323C34.3095 52.0934 34.5142 52.5483 34.6458 53.0146C34.6652 53.0833 34.6736 53.1434 34.6462 53.2121C34.6423 53.222 34.6361 53.2307 34.631 53.2401C34.4346 52.8433 34.0923 52.3661 33.8505 51.9807C33.1668 50.8951 32.4668 49.8201 31.7504 48.7558L26.9643 41.4637L23.5756 36.2763C23.3077 35.869 23.0504 35.4549 22.7846 35.0463C22.6508 34.8407 22.5197 34.6067 22.3545 34.4258Z" fill="#3D75F5"/>
<path d="M43.0383 34.4317L47.0293 34.4305C46.1635 35.6957 45.3558 37.0034 44.5088 38.2816L37.7105 48.5422C37.0225 49.5789 36.3262 50.6151 35.6632 51.6677C35.4615 51.9843 35.2642 52.3035 35.0714 52.6255C34.9487 52.8324 34.8345 53.072 34.6853 53.2591C34.6823 53.1444 34.6876 53.0265 34.7149 52.9148C34.8398 52.7013 34.9 52.3967 34.9736 52.1586C35.077 51.8229 35.1842 51.4885 35.2955 51.1553C35.7369 49.8303 36.1914 48.5097 36.6589 47.1936C37.5486 44.6578 38.4514 42.1267 39.3673 39.6002C39.6374 38.8695 39.898 38.1331 40.1756 37.4054C40.5504 36.4231 40.9447 35.446 41.2777 34.4482L42.3848 34.4484C42.5995 34.4482 42.8255 34.4605 43.0383 34.4317Z" fill="#020E77"/>
<path d="M41.2766 34.4325C41.8624 34.4306 42.4527 34.4133 43.0379 34.4317C42.8252 34.4605 42.5991 34.4482 42.3845 34.4484L41.2773 34.4482C40.9443 35.446 40.55 36.4231 40.1753 37.4054C39.8977 38.1331 39.6371 38.8695 39.3669 39.6002C38.4511 42.1266 37.5483 44.6578 36.6586 47.1936C36.191 48.5097 35.7365 49.8303 35.2951 51.1553C35.1839 51.4885 35.0766 51.8229 34.9733 52.1586C34.8996 52.3967 34.8394 52.7012 34.7145 52.9148C34.6577 52.5263 34.6984 52.0233 34.6928 51.6214C34.6735 50.4572 34.6702 49.2929 34.6827 48.1286L34.6928 39.0388L34.6886 35.8326C34.6857 35.3735 34.7129 34.9003 34.6801 34.4432C34.9319 34.4266 35.1927 34.4372 35.4456 34.436L36.9747 34.4321L41.2766 34.4325Z" fill="#0723AA"/>
<path d="M28.0718 34.4371L32.5241 34.4489L33.945 34.4499C34.1854 34.45 34.4424 34.4671 34.6806 34.4432C34.7134 34.9003 34.6862 35.3735 34.6891 35.8326L34.6933 39.0388L34.6832 48.1286C34.6707 49.2929 34.674 50.4572 34.6933 51.6214C34.6989 52.0233 34.6582 52.5263 34.715 52.9148C34.6877 53.0265 34.6825 53.1444 34.6855 53.2591L34.6703 53.3175C34.6504 53.2898 34.6425 53.2716 34.6312 53.24C34.6362 53.2307 34.6425 53.2219 34.6464 53.212C34.6738 53.1434 34.6653 53.0833 34.6459 53.0146C34.5143 52.5482 34.3096 52.0933 34.1563 51.6323C33.6876 50.1896 33.1943 48.7554 32.6764 47.3297L29.7169 38.9005C29.1793 37.4091 28.6022 35.9309 28.0718 34.4371Z" fill="#1048EE"/>
<path d="M27.2029 20.9132C27.2254 20.8893 27.2555 20.87 27.2816 20.85C27.8475 21.9891 28.4076 23.131 28.9621 24.2758C29.0954 24.5504 29.2429 24.8179 29.375 25.0932C29.493 25.3389 29.9995 26.5405 30.1261 26.6814L30.1195 26.6918L30.1321 26.7344L30.1573 26.7682C30.9675 26.7807 31.7777 26.7866 32.588 26.7857C33.2848 26.7883 33.9844 26.8023 34.681 26.7883L34.6927 26.7913C34.6627 27.5008 34.6771 28.2157 34.6765 28.926L34.6753 32.4257L34.6778 33.8017C34.6786 33.9754 34.7053 34.1847 34.6774 34.3538L34.6793 34.3759L34.6806 34.4432C34.4424 34.4671 34.1855 34.45 33.945 34.4499L32.5241 34.4489L28.0718 34.4371C27.6481 34.4113 27.2129 34.4298 26.7879 34.4296L23.8642 34.4288C23.3642 34.4292 22.8535 34.4521 22.3547 34.4257L22.3449 34.4258L22.3418 34.2865C22.4387 34.0782 22.5022 33.8309 22.583 33.6125L23.2163 31.895L25.2298 26.3597L26.676 22.3797C26.8171 21.992 27.1497 21.2888 27.2029 20.9132Z" fill="#38D3FA"/>
<path d="M30.1193 26.6917L30.1319 26.7343C29.8974 27.4842 29.7099 28.2494 29.506 29.008L28.0716 34.4371C27.6479 34.4113 27.2127 34.4298 26.7877 34.4295L23.864 34.4287C23.364 34.4291 22.8534 34.4521 22.3545 34.4257C22.3847 34.307 22.7339 33.9865 22.8412 33.8762C24.3752 32.3003 25.9633 30.7736 27.5187 29.2189C28.0609 28.6719 28.6058 28.1277 29.1535 27.5862C29.445 27.2982 29.7867 26.9211 30.1193 26.6917Z" fill="#A1E7F8"/>
<path d="M30.1321 26.7344L30.1573 26.7683C30.9675 26.7808 31.7777 26.7866 32.5879 26.7857C33.2848 26.7883 33.9844 26.8023 34.681 26.7883L34.6927 26.7913C34.6626 27.5008 34.677 28.2157 34.6765 28.926L34.6753 32.4258L34.6778 33.8017C34.6785 33.9755 34.7053 34.1847 34.6774 34.3539L34.6793 34.376L34.6806 34.4433C34.4424 34.4671 34.1854 34.45 33.945 34.4499L32.5241 34.4489L28.0718 34.4371L29.5061 29.0081C29.71 28.2495 29.8976 27.4843 30.1321 26.7344Z" fill="#4194F5"/>
<path d="M30.1572 26.7682C30.9674 26.7807 31.7776 26.7865 32.5879 26.7857C33.2847 26.7882 33.9843 26.8022 34.6809 26.7882L34.6926 26.7913C34.6626 27.5008 34.677 28.2156 34.6764 28.9259L34.6752 32.4257L34.6777 33.8016C34.6785 33.9754 34.7052 34.1847 34.6773 34.3538C34.5533 34.1907 34.4543 33.99 34.3489 33.8136L33.6719 32.6871L31.5583 29.1142C31.1019 28.3289 30.668 27.52 30.1572 26.7682Z" fill="#1D4FB0"/>
<path d="M42.0413 20.8614C42.1361 20.9002 42.2134 20.9937 42.2822 21.0677C42.3292 21.3845 42.5086 21.7062 42.6263 22.0039C42.7901 22.4219 42.9493 22.8417 43.104 23.2631L46.0225 31.3582C46.2773 32.0527 46.5246 32.7499 46.7643 33.4498C46.8498 33.6996 47.0159 34.0558 47.0249 34.3096L47.0571 34.3436L47.0292 34.4304L43.0383 34.4317C42.453 34.4133 41.8627 34.4305 41.2769 34.4324L36.975 34.4321L35.4459 34.436C35.193 34.4372 34.9323 34.4266 34.6804 34.4432L34.6791 34.3759L34.6772 34.3538C34.7051 34.1847 34.6784 33.9754 34.6776 33.8016L34.6751 32.4257L34.6763 28.9259C34.6769 28.2156 34.6625 27.5008 34.6925 26.7913C35.0632 26.7792 35.4374 26.7892 35.8084 26.789L37.9853 26.7878C38.4058 26.7874 38.8332 26.8014 39.2529 26.7752L39.295 26.7112L39.2987 26.6982C39.4045 26.5902 39.7677 25.7059 39.8783 25.4677L41.1268 22.7938C41.4259 22.1468 41.7098 21.4928 42.0413 20.8614Z" fill="#1048EE"/>
<path d="M39.2949 26.7113C39.5096 26.8414 39.7531 27.1403 39.9347 27.3216L41.1786 28.5623L44.9977 32.3077C45.4714 32.7817 45.9484 33.2525 46.4285 33.7201C46.6272 33.915 46.8187 34.1231 47.0248 34.3096L47.0571 34.3436L47.0292 34.4305L43.0382 34.4317C42.453 34.4134 41.8627 34.4306 41.2769 34.4325C41.2245 34.1045 41.1219 33.7794 41.0351 33.4589L40.6739 32.103L39.7988 28.664C39.6329 28.0135 39.4394 27.3667 39.2949 26.7113Z" fill="#4194F5"/>
<path d="M39.295 26.7113C39.4394 27.3667 39.6329 28.0135 39.7988 28.664L40.674 32.103L41.0351 33.4589C41.122 33.7794 41.2245 34.1045 41.2769 34.4325L36.975 34.4321L35.4459 34.4361C35.193 34.4373 34.9323 34.4266 34.6804 34.4432L34.6791 34.376L34.6772 34.3539C34.7051 34.1847 34.6784 33.9755 34.6776 33.8017L34.6751 32.4258L34.6763 28.926C34.6769 28.2157 34.6625 27.5008 34.6925 26.7913C35.0632 26.7793 35.4374 26.7892 35.8084 26.7891L37.9853 26.7878C38.4058 26.7875 38.8332 26.8014 39.2529 26.7752L39.295 26.7113Z" fill="#1048EE"/>
<path d="M34.6925 26.7913C35.0632 26.7792 35.4374 26.7892 35.8084 26.789L37.9853 26.7878C38.4058 26.7874 38.8332 26.8014 39.2529 26.7752C39.1901 26.9307 39.0821 27.0803 38.9938 27.2229C38.8327 27.4828 38.6683 27.7413 38.5142 28.0055C37.6764 29.4422 36.7922 30.8516 35.9427 32.2813C35.6929 32.7018 35.4315 33.1157 35.1836 33.537C35.0912 33.694 34.8014 34.2852 34.6934 34.3781L34.6791 34.3759L34.6772 34.3538C34.7051 34.1847 34.6784 33.9754 34.6776 33.8016L34.6751 32.4257L34.6763 28.9259C34.6769 28.2156 34.6625 27.5008 34.6925 26.7913Z" fill="#0723AA"/>
<defs>
<filter id="filter0_f_85_328" x="0.2" y="0.2" width="69.6" height="69.6" filterUnits="userSpaceOnUse" color-interpolation-filters="sRGB">
<feFlood flood-opacity="0" result="BackgroundImageFix"/>
<feBlend mode="normal" in="SourceGraphic" in2="BackgroundImageFix" result="shape"/>
<feGaussianBlur stdDeviation="6.9" result="effect1_foregroundBlur_85_328"/>
</filter>
</defs>
</svg>
