<svg width="48" height="53" viewBox="0 0 48 53" fill="none" xmlns="http://www.w3.org/2000/svg">
<g filter="url(#filter0_di_91_1022)">
<rect width="48" height="49" rx="24" fill="url(#paint0_linear_91_1022)"/>
<rect x="0.5" y="0.5" width="47" height="48" rx="23.5" stroke="#7D7D7D"/>
</g>
<path d="M28.5 24.375C28.5 26.6532 26.6532 28.5 24.375 28.5C22.0968 28.5 20.25 26.6532 20.25 24.375C20.25 22.0968 22.0968 20.25 24.375 20.25C26.6532 20.25 28.5 22.0968 28.5 24.375Z" stroke="#393939" stroke-width="2.75" stroke-linecap="round" stroke-linejoin="round"/>
<path d="M25.6188 12.0826C25.3359 12 25.0156 12 24.375 12C23.7344 12 23.4141 12 23.1312 12.0826C22.717 12.2034 22.3511 12.4511 22.0851 12.7908C21.9033 13.0228 21.7844 13.3202 21.5465 13.915C21.2045 14.77 20.2554 15.2102 19.3818 14.9191L18.597 14.6576C18.0402 14.472 17.7619 14.3792 17.4889 14.3634C17.088 14.34 16.689 14.4342 16.3409 14.6344C16.1039 14.7706 15.8964 14.9781 15.4815 15.3931C15.0404 15.8341 14.8199 16.0546 14.6798 16.3063C14.474 16.6762 14.3869 17.1003 14.4304 17.5213C14.46 17.8079 14.5759 18.0974 14.8075 18.6765C15.1703 19.5834 14.8213 20.6196 13.9837 21.1222L13.6022 21.3512C13.0179 21.7017 12.7258 21.877 12.5136 22.1183C12.3258 22.3319 12.1843 22.582 12.0977 22.8529C12 23.1589 12 23.503 12 24.1912C12 25.006 12 25.4133 12.1301 25.7621C12.2451 26.0702 12.4321 26.3463 12.6755 26.5676C12.9509 26.8178 13.3254 26.9677 14.0744 27.2673C14.8398 27.5734 15.2339 28.4231 14.9732 29.2052L14.6774 30.0928C14.4725 30.7074 14.37 31.0149 14.3607 31.3168C14.3495 31.68 14.4344 32.0395 14.6068 32.3592C14.7502 32.6253 14.9793 32.8543 15.4375 33.3125C15.8957 33.7707 16.1248 33.9997 16.3907 34.1431C16.7105 34.3156 17.0701 34.4005 17.4332 34.3893C17.7352 34.3799 18.0425 34.2775 18.6573 34.0726L19.3819 33.831C20.2554 33.5399 21.2045 33.9801 21.5465 34.835C21.7844 35.4297 21.9033 35.7271 22.0851 35.9592C22.3511 36.2989 22.717 36.5466 23.1312 36.6675C23.4141 36.75 23.7344 36.75 24.375 36.75C25.0156 36.75 25.3359 36.75 25.6188 36.6675C26.033 36.5466 26.3989 36.2989 26.6649 35.9592C26.8467 35.7271 26.9656 35.4297 27.2035 34.835C27.5455 33.9801 28.4946 33.5399 29.368 33.8313L30.0921 34.0727C30.7069 34.2776 31.0143 34.38 31.3163 34.3894C31.6794 34.4005 32.039 34.3157 32.3587 34.1433C32.6246 33.9999 32.8538 33.7708 33.3119 33.3126C33.7701 32.8545 33.9992 32.6253 34.1426 32.3594C34.315 32.0397 34.3998 31.68 34.3887 31.317C34.3794 31.015 34.2769 30.7076 34.0721 30.0928L33.7764 29.2059C33.5156 28.4236 33.9098 27.5735 34.6755 27.2673C35.4245 26.9677 35.7991 26.8178 36.0746 26.5676C36.318 26.3463 36.505 26.0702 36.6199 25.7621C36.75 25.4133 36.75 25.006 36.75 24.1912C36.75 23.503 36.75 23.1589 36.6522 22.8529C36.5657 22.582 36.4241 22.3319 36.2364 22.1183C36.0241 21.877 35.7321 21.7017 35.1479 21.3512L34.7657 21.122C33.9282 20.6194 33.5791 19.5833 33.942 18.6764C34.1735 18.0973 34.2894 17.8078 34.319 17.5212C34.3625 17.1002 34.2754 16.6761 34.0696 16.3062C33.9295 16.0545 33.709 15.834 33.2679 15.393C32.853 14.978 32.6455 14.7705 32.4086 14.6343C32.0604 14.4341 31.6614 14.3399 31.2605 14.3632C30.9875 14.3791 30.7092 14.4719 30.1525 14.6575L29.3682 14.9189C28.4946 15.2101 27.5455 14.7699 27.2035 13.915C26.9656 13.3202 26.8467 13.0228 26.6649 12.7908C26.3989 12.4511 26.033 12.2034 25.6188 12.0826Z" stroke="#393939" stroke-width="2.75" stroke-linecap="round" stroke-linejoin="round"/>
<defs>
<filter id="filter0_di_91_1022" x="0" y="0" width="48" height="53" filterUnits="userSpaceOnUse" color-interpolation-filters="sRGB">
<feFlood flood-opacity="0" result="BackgroundImageFix"/>
<feColorMatrix in="SourceAlpha" type="matrix" values="0 0 0 0 0 0 0 0 0 0 0 0 0 0 0 0 0 0 127 0" result="hardAlpha"/>
<feOffset dy="4"/>
<feComposite in2="hardAlpha" operator="out"/>
<feColorMatrix type="matrix" values="0 0 0 0 0.491667 0 0 0 0 0.491667 0 0 0 0 0.491667 0 0 0 1 0"/>
<feBlend mode="normal" in2="BackgroundImageFix" result="effect1_dropShadow_91_1022"/>
<feBlend mode="normal" in="SourceGraphic" in2="effect1_dropShadow_91_1022" result="shape"/>
<feColorMatrix in="SourceAlpha" type="matrix" values="0 0 0 0 0 0 0 0 0 0 0 0 0 0 0 0 0 0 127 0" result="hardAlpha"/>
<feOffset dy="4"/>
<feGaussianBlur stdDeviation="2"/>
<feComposite in2="hardAlpha" operator="arithmetic" k2="-1" k3="1"/>
<feColorMatrix type="matrix" values="0 0 0 0 1 0 0 0 0 1 0 0 0 0 1 0 0 0 1 0"/>
<feBlend mode="normal" in2="shape" result="effect2_innerShadow_91_1022"/>
</filter>
<linearGradient id="paint0_linear_91_1022" x1="24" y1="1.46031e-06" x2="24" y2="49" gradientUnits="userSpaceOnUse">
<stop stop-color="#EFEFEF"/>
<stop offset="1" stop-color="#BDBDBD"/>
</linearGradient>
</defs>
</svg>
