<svg width="49" height="49" viewBox="0 0 49 49" fill="none" xmlns="http://www.w3.org/2000/svg">
<mask id="path-1-inside-1_85_353" fill="white">
<path d="M49 24.5C49 38.031 38.031 49 24.5 49C10.969 49 0 38.031 0 24.5C0 10.969 10.969 0 24.5 0C38.031 0 49 10.969 49 24.5ZM5.62885 24.5C5.62885 34.9222 14.0778 43.3711 24.5 43.3711C34.9222 43.3711 43.3711 34.9222 43.3711 24.5C43.3711 14.0778 34.9222 5.62885 24.5 5.62885C14.0778 5.62885 5.62885 14.0778 5.62885 24.5Z"/>
</mask>
<path d="M49 24.5C49 38.031 38.031 49 24.5 49C10.969 49 0 38.031 0 24.5C0 10.969 10.969 0 24.5 0C38.031 0 49 10.969 49 24.5ZM5.62885 24.5C5.62885 34.9222 14.0778 43.3711 24.5 43.3711C34.9222 43.3711 43.3711 34.9222 43.3711 24.5C43.3711 14.0778 34.9222 5.62885 24.5 5.62885C14.0778 5.62885 5.62885 14.0778 5.62885 24.5Z" stroke="url(#paint0_linear_85_353)" stroke-width="8" mask="url(#path-1-inside-1_85_353)"/>
<defs>
<linearGradient id="paint0_linear_85_353" x1="24.5" y1="0" x2="24.5" y2="49" gradientUnits="userSpaceOnUse">
<stop stop-color="#7DFF40"/>
<stop offset="1" stop-color="#51E800"/>
</linearGradient>
</defs>
</svg>
