<svg width="221" height="27" viewBox="0 0 221 27" fill="none" xmlns="http://www.w3.org/2000/svg">
<rect width="221" height="27" rx="13.5" fill="#00C642"/>
<path d="M14.2964 20C14.1231 20 14.0364 19.9055 14.0364 19.7164V4.80531C14.0364 4.61626 14.1231 4.52174 14.2964 4.52174H18.9989C20.8579 4.52174 22.2521 4.83681 23.1816 5.46697C24.1269 6.09713 24.5995 7.05812 24.5995 8.34995C24.5995 9.24792 24.3947 9.96473 23.9851 10.5004C23.5912 11.036 22.9453 11.4614 22.0473 11.7764V11.8473C23.1029 12.0364 23.8984 12.446 24.4341 13.0761C24.9854 13.6905 25.2611 14.5255 25.2611 15.581C25.2611 17.1249 24.7649 18.2513 23.7724 18.9602C22.7799 19.6534 21.1887 20 18.9989 20H14.2964ZM16.8722 17.6369H19.0698C20.2671 17.6369 21.1257 17.4715 21.6456 17.1407C22.1655 16.7941 22.4254 16.219 22.4254 15.4156C22.4254 14.6279 22.1576 14.0529 21.622 13.6905C21.1021 13.3282 20.2593 13.147 19.0935 13.147H16.8722V17.6369ZM16.8722 10.9966H18.9281C19.9206 10.9966 20.6374 10.8233 21.0785 10.4767C21.5353 10.1301 21.7638 9.59451 21.7638 8.86983C21.7638 8.1609 21.5275 7.6489 21.0548 7.33382C20.5822 7.01874 19.8103 6.8612 18.739 6.8612H16.8722V10.9966ZM32.5127 20.2836C30.8113 20.2836 29.5352 19.9134 28.6845 19.1729C27.8338 18.4167 27.4084 17.2982 27.4084 15.8173V12.8871C27.4084 11.3117 27.8259 10.1223 28.6609 9.31882C29.5116 8.49961 30.7876 8.09001 32.4891 8.09001C34.159 8.09001 35.4193 8.48386 36.27 9.27155C37.1207 10.0593 37.5461 11.2093 37.5461 12.7217V14.5649C37.5461 14.7539 37.4516 14.8485 37.2625 14.8485H30.1732V15.5574C30.1732 16.4239 30.3544 17.0619 30.7168 17.4715C31.0948 17.8653 31.7014 18.0623 32.5363 18.0623C33.1822 18.0623 33.6785 17.9599 34.0251 17.7551C34.3874 17.5503 34.5686 17.2431 34.5686 16.8335C34.5686 16.6444 34.6631 16.5499 34.8522 16.5499H37.0262C37.1995 16.5499 37.294 16.6365 37.3098 16.8098C37.357 17.9441 36.9632 18.8106 36.1282 19.4092C35.309 19.9921 34.1039 20.2836 32.5127 20.2836ZM30.1732 12.958H34.8049V12.8398C34.8049 11.9734 34.6159 11.3353 34.2378 10.9257C33.8597 10.5161 33.2846 10.3113 32.5127 10.3113C31.7093 10.3113 31.1185 10.524 30.7404 10.9494C30.3623 11.359 30.1732 11.997 30.1732 12.8635V12.958ZM38.9951 20C38.7746 20 38.7037 19.8897 38.7825 19.6692L42.7288 8.68078C42.8076 8.47598 42.9415 8.37358 43.1306 8.37358H45.5645C45.7694 8.37358 45.9033 8.47598 45.9663 8.68078L49.9126 19.6692C49.9914 19.8897 49.9284 20 49.7236 20H47.2896C47.1321 20 47.0297 19.9212 46.9824 19.7637L45.1865 14.0923C45.0447 13.6039 44.9029 13.1392 44.7611 12.698C44.6193 12.2569 44.4854 11.8001 44.3594 11.3274H44.3121C44.2018 11.8001 44.0758 12.2648 43.934 12.7217C43.808 13.1628 43.6662 13.6275 43.5087 14.1159L41.6891 19.7637C41.6418 19.9212 41.5394 20 41.3819 20H38.9951ZM54.5823 20.2836C53.5426 20.2836 52.7549 19.9606 52.2192 19.3147C51.6836 18.653 51.4158 17.6763 51.4158 16.3845V8.65715C51.4158 8.4681 51.5024 8.37358 51.6757 8.37358H53.9207C54.1097 8.37358 54.2042 8.4681 54.2042 8.65715V15.9355C54.2042 16.5971 54.3145 17.0855 54.5351 17.4006C54.7714 17.7157 55.1337 17.8732 55.6221 17.8732C56.142 17.8732 56.6619 17.7078 57.1817 17.377C57.7174 17.0304 58.316 16.5184 58.9777 15.841L59.0722 17.9205C58.6154 18.3773 58.1506 18.7869 57.678 19.1493C57.2211 19.4959 56.7328 19.7716 56.2129 19.9764C55.7087 20.1812 55.1652 20.2836 54.5823 20.2836ZM59.2613 20C59.1667 20 59.088 19.9842 59.025 19.9527C58.9777 19.9055 58.9462 19.8346 58.9304 19.7401C58.8832 19.4565 58.8359 19.1572 58.7886 18.8421C58.7571 18.527 58.7335 18.2119 58.7178 17.8968L58.5051 16.6917V8.65715C58.5051 8.4681 58.5996 8.37358 58.7886 8.37358H61.0336C61.2069 8.37358 61.2935 8.4681 61.2935 8.65715V17.0461C61.2935 17.503 61.3014 17.9599 61.3172 18.4167C61.3487 18.8578 61.3959 19.2911 61.4589 19.7164C61.4904 19.9055 61.3959 20 61.1754 20H59.2613ZM74.7844 19.6692C74.8474 19.7479 74.8632 19.8267 74.8316 19.9055C74.8001 19.9685 74.7292 20 74.619 20H71.9487C71.8069 20 71.6966 19.9449 71.6178 19.8346L68.4749 14.9902H67.1043V19.7164C67.1043 19.9055 67.0098 20 66.8208 20H64.5758C64.4025 20 64.3159 19.9055 64.3159 19.7164V4.14364C64.3159 3.95459 64.4025 3.86007 64.5758 3.86007H66.8208C67.0098 3.86007 67.1043 3.95459 67.1043 4.14364V12.7217H68.4749L71.3579 8.53899C71.4367 8.42872 71.5469 8.37358 71.6887 8.37358H74.2645C74.3748 8.37358 74.4457 8.40509 74.4772 8.4681C74.5087 8.53112 74.4929 8.60989 74.4299 8.70441L70.8617 13.6669L74.7844 19.6692ZM79.5748 20.2836C78.5351 20.2836 77.7474 19.9606 77.2117 19.3147C76.6761 18.653 76.4083 17.6763 76.4083 16.3845V8.65715C76.4083 8.4681 76.4949 8.37358 76.6682 8.37358H78.9132C79.1022 8.37358 79.1967 8.4681 79.1967 8.65715V15.9355C79.1967 16.5971 79.307 17.0855 79.5276 17.4006C79.7639 17.7157 80.1262 17.8732 80.6146 17.8732C81.1345 17.8732 81.6543 17.7078 82.1742 17.377C82.7099 17.0304 83.3085 16.5184 83.9702 15.841L84.0647 17.9205C83.6078 18.3773 83.1431 18.7869 82.6705 19.1493C82.2136 19.4959 81.7252 19.7716 81.2054 19.9764C80.7012 20.1812 80.1577 20.2836 79.5748 20.2836ZM84.2537 20C84.1592 20 84.0805 19.9842 84.0174 19.9527C83.9702 19.9055 83.9387 19.8346 83.9229 19.7401C83.8757 19.4565 83.8284 19.1572 83.7811 18.8421C83.7496 18.527 83.726 18.2119 83.7102 17.8968L83.4976 16.6917V8.65715C83.4976 8.4681 83.5921 8.37358 83.7811 8.37358H86.0261C86.1994 8.37358 86.286 8.4681 86.286 8.65715V17.0461C86.286 17.503 86.2939 17.9599 86.3096 18.4167C86.3411 18.8578 86.3884 19.2911 86.4514 19.7164C86.4829 19.9055 86.3884 20 86.1679 20H84.2537ZM92.4749 20.2836C91.4352 20.2836 90.6475 19.9606 90.1118 19.3147C89.5762 18.653 89.3084 17.6763 89.3084 16.3845V8.65715C89.3084 8.4681 89.395 8.37358 89.5683 8.37358H91.8132C92.0023 8.37358 92.0968 8.4681 92.0968 8.65715V15.9355C92.0968 16.5971 92.2071 17.0855 92.4277 17.4006C92.664 17.7157 93.0263 17.8732 93.5147 17.8732C94.0346 17.8732 94.5544 17.7078 95.0743 17.377C95.61 17.0304 96.2086 16.5184 96.8703 15.841L96.9648 17.9205C96.5079 18.3773 96.0432 18.7869 95.5706 19.1493C95.1137 19.4959 94.6253 19.7716 94.1055 19.9764C93.6013 20.1812 93.0578 20.2836 92.4749 20.2836ZM97.1538 20C97.0593 20 96.9805 19.9842 96.9175 19.9527C96.8703 19.9055 96.8388 19.8346 96.823 19.7401C96.7757 19.4565 96.7285 19.1572 96.6812 18.8421C96.6497 18.527 96.6261 18.2119 96.6103 17.8968L96.3977 16.6917V8.65715C96.3977 8.4681 96.4922 8.37358 96.6812 8.37358H98.9262C99.0995 8.37358 99.1861 8.4681 99.1861 8.65715V17.0461C99.1861 17.503 99.194 17.9599 99.2097 18.4167C99.2412 18.8578 99.2885 19.2911 99.3515 19.7164C99.383 19.9055 99.2885 20 99.0679 20H97.1538ZM94.2472 6.8612C93.7116 6.8612 93.2469 6.79031 92.853 6.64852C92.4592 6.49098 92.1283 6.31769 91.8605 6.12864C91.5927 5.93959 91.3879 5.77417 91.2461 5.63239C91.1831 5.56937 91.1516 5.46697 91.1516 5.32519V3.76555C91.1516 3.65527 91.1752 3.58437 91.2225 3.55287C91.2855 3.5056 91.3643 3.52924 91.4588 3.62376C91.7266 3.86007 92.0968 4.12001 92.5694 4.40358C93.0578 4.6714 93.6171 4.80531 94.2472 4.80531C94.8774 4.80531 95.4288 4.6714 95.9014 4.40358C96.3898 4.12001 96.76 3.86007 97.0121 3.62376C97.1066 3.52924 97.1775 3.5056 97.2247 3.55287C97.2878 3.58437 97.3193 3.65527 97.3193 3.76555V5.32519C97.3193 5.40396 97.3114 5.47485 97.2956 5.53787C97.2799 5.58513 97.2484 5.63239 97.2011 5.67965C97.0593 5.80568 96.8545 5.96322 96.5867 6.15227C96.3346 6.34132 96.0117 6.50673 95.6178 6.64852C95.224 6.79031 94.7671 6.8612 94.2472 6.8612ZM107.505 20C107.331 20 107.245 19.9055 107.245 19.7164V4.80531C107.245 4.61626 107.331 4.52174 107.505 4.52174H109.797C109.986 4.52174 110.081 4.61626 110.081 4.80531V10.8785H116.697V4.80531C116.697 4.61626 116.792 4.52174 116.981 4.52174H119.273C119.446 4.52174 119.533 4.61626 119.533 4.80531V19.7164C119.533 19.9055 119.446 20 119.273 20H116.981C116.792 20 116.697 19.9055 116.697 19.7164V13.3361H110.081V19.7164C110.081 19.9055 109.986 20 109.797 20H107.505ZM127.708 20.2836C126.039 20.2836 124.747 19.8897 123.833 19.102C122.935 18.2986 122.486 17.0855 122.486 15.4629V12.9107C122.486 11.3038 122.935 10.0986 123.833 9.29519C124.731 8.49173 126.023 8.09001 127.708 8.09001C129.378 8.09001 130.662 8.49173 131.56 9.29519C132.458 10.0986 132.907 11.3038 132.907 12.9107V15.4629C132.907 17.0855 132.458 18.2986 131.56 19.102C130.678 19.8897 129.394 20.2836 127.708 20.2836ZM127.708 17.8968C128.559 17.8968 129.174 17.6842 129.552 17.2588C129.93 16.8177 130.119 16.1324 130.119 15.2029V13.1707C130.119 12.2412 129.93 11.5638 129.552 11.1384C129.174 10.6973 128.559 10.4767 127.708 10.4767C126.858 10.4767 126.235 10.6973 125.842 11.1384C125.464 11.5638 125.274 12.2412 125.274 13.1707V15.2029C125.274 16.1324 125.464 16.8177 125.842 17.2588C126.235 17.6842 126.858 17.8968 127.708 17.8968ZM140.492 20.2836C138.869 20.2836 137.64 19.8897 136.805 19.102C135.986 18.3143 135.576 17.1328 135.576 15.5574V8.18453C135.576 7.20779 135.75 6.3807 136.096 5.70328C136.443 5.01011 136.978 4.48235 137.703 4.12001C138.428 3.75767 139.349 3.5765 140.468 3.5765C141.964 3.5765 143.083 3.87582 143.823 4.47447C144.58 5.07312 144.958 5.95535 144.958 7.12114C144.958 8.00336 144.777 8.75167 144.414 9.36608C144.068 9.96473 143.619 10.398 143.067 10.6658V10.713C143.981 10.8548 144.651 11.2329 145.076 11.8473C145.501 12.446 145.714 13.2337 145.714 14.2104V15.3211C145.714 16.928 145.265 18.1568 144.367 19.0075C143.469 19.8582 142.177 20.2836 140.492 20.2836ZM140.586 17.8968C141.389 17.8968 141.98 17.6763 142.358 17.2352C142.752 16.7783 142.949 16.1245 142.949 15.2738V14.1632C142.949 13.4857 142.792 12.9974 142.477 12.698C142.177 12.383 141.697 12.2254 141.035 12.2254C140.814 12.2254 140.555 12.2491 140.255 12.2963C139.972 12.3278 139.664 12.383 139.334 12.4617C139.019 12.5247 138.688 12.6035 138.341 12.698V15.3211C138.341 16.2033 138.514 16.8571 138.861 17.2824C139.208 17.692 139.783 17.8968 140.586 17.8968ZM138.341 10.7603L139.83 10.4531C140.57 10.2956 141.153 10.012 141.579 9.60239C142.004 9.19278 142.217 8.58626 142.217 7.7828C142.217 7.12114 142.067 6.64064 141.768 6.34132C141.468 6.04199 141.004 5.89233 140.373 5.89233C139.712 5.89233 139.208 6.06562 138.861 6.41221C138.514 6.7588 138.341 7.28655 138.341 7.99548V10.7603ZM152.518 20.2836C151.006 20.2836 149.872 20.0551 149.115 19.5983C148.375 19.1257 147.997 18.3222 147.981 17.1879C147.981 16.3215 148.17 15.6204 148.548 15.0848C148.942 14.5334 149.564 14.0923 150.415 13.7614L153.085 12.7217C153.605 12.5169 153.96 12.3121 154.149 12.1073C154.338 11.9025 154.432 11.6268 154.432 11.2802C154.432 10.9178 154.299 10.6579 154.031 10.5004C153.763 10.3428 153.322 10.2641 152.707 10.2641C152.077 10.2641 151.605 10.3586 151.29 10.5476C150.974 10.7367 150.817 11.0202 150.817 11.3983C150.817 11.5086 150.793 11.5953 150.746 11.6583C150.715 11.7213 150.652 11.7528 150.557 11.7528H148.477C148.304 11.7528 148.202 11.6346 148.17 11.3983C148.076 10.4058 148.414 9.61026 149.186 9.01161C149.974 8.39721 151.164 8.09001 152.755 8.09001C154.22 8.09001 155.33 8.34995 156.087 8.86983C156.843 9.38971 157.221 10.1695 157.221 11.2093C157.221 12.0443 157.024 12.7138 156.63 13.2179C156.252 13.7063 155.638 14.1159 154.787 14.4467L152.093 15.4865C151.589 15.6913 151.242 15.9118 151.053 16.1482C150.864 16.3845 150.77 16.6995 150.77 17.0934C150.785 17.5188 150.943 17.8023 151.242 17.9441C151.557 18.0859 152.038 18.1489 152.684 18.1332C153.393 18.1174 153.913 18.0071 154.243 17.8023C154.59 17.5818 154.763 17.2431 154.763 16.7862C154.763 16.5499 154.842 16.4317 155 16.4317H157.103C157.182 16.4317 157.245 16.4554 157.292 16.5026C157.339 16.5341 157.371 16.6208 157.386 16.7626C157.481 17.8811 157.15 18.7476 156.394 19.362C155.653 19.9764 154.362 20.2836 152.518 20.2836ZM164.863 20.2836C163.193 20.2836 161.901 19.8897 160.987 19.102C160.089 18.2986 159.64 17.0855 159.64 15.4629V12.9107C159.64 11.3038 160.089 10.0986 160.987 9.29519C161.885 8.49173 163.177 8.09001 164.863 8.09001C166.533 8.09001 167.816 8.49173 168.714 9.29519C169.612 10.0986 170.061 11.3038 170.061 12.9107V15.4629C170.061 17.0855 169.612 18.2986 168.714 19.102C167.832 19.8897 166.548 20.2836 164.863 20.2836ZM164.863 17.8968C165.713 17.8968 166.328 17.6842 166.706 17.2588C167.084 16.8177 167.273 16.1324 167.273 15.2029V13.1707C167.273 12.2412 167.084 11.5638 166.706 11.1384C166.328 10.6973 165.713 10.4767 164.863 10.4767C164.012 10.4767 163.39 10.6973 162.996 11.1384C162.618 11.5638 162.429 12.2412 162.429 13.1707V15.2029C162.429 16.1324 162.618 16.8177 162.996 17.2588C163.39 17.6842 164.012 17.8968 164.863 17.8968ZM178.591 20.2836C178.04 20.2836 177.441 20.2048 176.795 20.0473C176.165 19.9055 175.638 19.7086 175.212 19.4565L175.165 17.2352C175.575 17.4715 176.016 17.6527 176.488 17.7787C176.961 17.889 177.402 17.9441 177.812 17.9441C178.568 17.9441 179.119 17.7157 179.466 17.2588C179.812 16.8019 179.986 16.1324 179.986 15.2502V12.7453C179.986 11.9734 179.852 11.4062 179.584 11.0439C179.316 10.6815 178.899 10.5004 178.331 10.5004C177.843 10.5004 177.347 10.65 176.843 10.9494C176.339 11.2487 175.74 11.7134 175.047 12.3436L174.929 10.2641C175.385 9.82294 175.842 9.44485 176.299 9.12977C176.756 8.79893 177.229 8.54687 177.717 8.37358C178.205 8.18453 178.733 8.09001 179.3 8.09001C180.45 8.09001 181.317 8.43659 181.9 9.12977C182.483 9.80719 182.774 10.8548 182.774 12.2727V15.5101C182.774 17.117 182.412 18.3143 181.687 19.102C180.978 19.8897 179.946 20.2836 178.591 20.2836ZM173.038 24.3717C172.865 24.3717 172.778 24.2772 172.778 24.0882V11.1857C172.778 10.7761 172.762 10.3507 172.731 9.90959C172.699 9.46848 172.66 9.05888 172.613 8.68078C172.597 8.47598 172.692 8.37358 172.896 8.37358H174.881C175.055 8.37358 175.157 8.46022 175.189 8.63352C175.22 8.75955 175.252 8.92497 175.283 9.12977C175.315 9.31882 175.338 9.51574 175.354 9.72054C175.37 9.92534 175.378 10.0908 175.378 10.2168L175.567 11.5401V24.0882C175.567 24.2772 175.472 24.3717 175.283 24.3717H173.038ZM190.455 20.2836C188.785 20.2836 187.493 19.8897 186.58 19.102C185.682 18.2986 185.233 17.0855 185.233 15.4629V12.9107C185.233 11.3038 185.682 10.0986 186.58 9.29519C187.478 8.49173 188.769 8.09001 190.455 8.09001C192.125 8.09001 193.409 8.49173 194.307 9.29519C195.205 10.0986 195.654 11.3038 195.654 12.9107V15.4629C195.654 17.0855 195.205 18.2986 194.307 19.102C193.425 19.8897 192.141 20.2836 190.455 20.2836ZM190.455 17.8968C191.306 17.8968 191.92 17.6842 192.298 17.2588C192.676 16.8177 192.865 16.1324 192.865 15.2029V13.1707C192.865 12.2412 192.676 11.5638 192.298 11.1384C191.92 10.6973 191.306 10.4767 190.455 10.4767C189.604 10.4767 188.982 10.6973 188.588 11.1384C188.21 11.5638 188.021 12.2412 188.021 13.1707V15.2029C188.021 16.1324 188.21 16.8177 188.588 17.2588C188.982 17.6842 189.604 17.8968 190.455 17.8968ZM203.12 24.6553C201.576 24.6553 200.395 24.3717 199.575 23.8046C198.772 23.2532 198.417 22.4734 198.512 21.4651C198.528 21.3233 198.559 21.2209 198.606 21.1579C198.654 21.0949 198.725 21.0634 198.819 21.0634H200.946C201.025 21.0634 201.088 21.087 201.135 21.1343C201.182 21.1815 201.206 21.2682 201.206 21.3942C201.206 21.7408 201.379 22.0086 201.726 22.1977C202.072 22.3867 202.545 22.4812 203.144 22.4812C203.994 22.4812 204.585 22.3001 204.916 21.9377C205.247 21.5754 205.412 21.0161 205.412 20.2599V19.5274C205.412 19.2911 205.412 19.0548 205.412 18.8185C205.428 18.5664 205.444 18.3222 205.459 18.0859H205.412C204.782 18.6373 204.16 19.039 203.545 19.2911C202.931 19.5274 202.277 19.6455 201.584 19.6455C200.418 19.6455 199.544 19.3068 198.961 18.6294C198.378 17.952 198.087 16.9043 198.087 15.4865V12.8871C198.087 11.2644 198.488 10.0593 199.292 9.27155C200.095 8.48386 201.348 8.09001 203.049 8.09001C203.695 8.09001 204.286 8.12939 204.821 8.20816C205.373 8.27118 205.916 8.34995 206.452 8.44447C207.003 8.53899 207.586 8.60989 208.201 8.65715V19.9527C208.201 21.024 208.004 21.9062 207.61 22.5994C207.216 23.2926 206.641 23.8046 205.885 24.1354C205.129 24.482 204.207 24.6553 203.12 24.6553ZM202.553 17.2588C202.994 17.2588 203.435 17.1564 203.876 16.9516C204.317 16.7311 204.829 16.3766 205.412 15.8882V10.6421C205.081 10.5791 204.719 10.5319 204.325 10.5004C203.931 10.4531 203.569 10.4295 203.238 10.4295C202.419 10.4295 201.82 10.65 201.442 11.0911C201.064 11.5165 200.875 12.1939 200.875 13.1234V15.0139C200.875 15.8016 201.009 16.3766 201.277 16.7389C201.545 17.0855 201.97 17.2588 202.553 17.2588Z" fill="white"/>
</svg>
