<svg width="294" height="170" viewBox="0 0 294 170" fill="none" xmlns="http://www.w3.org/2000/svg">
<path d="M19.6453 114.71C14.1267 114.71 9.94825 113.409 7.11008 110.807C4.27191 108.205 2.85283 104.362 2.85283 99.277V89.9938C2.85283 84.8694 4.27191 81.026 7.11008 78.4638C9.94825 75.8621 14.1267 74.5613 19.6453 74.5613C25.164 74.5613 29.3424 75.8621 32.1806 78.4638C35.0582 81.026 36.4969 84.8694 36.4969 89.9938V99.277C36.4969 104.362 35.0582 108.205 32.1806 110.807C29.3424 113.409 25.164 114.71 19.6453 114.71ZM19.6453 106.195C22.0499 106.195 23.8237 105.545 24.9669 104.244C26.1495 102.943 26.7407 101.071 26.7407 98.6266V90.6442C26.7407 88.2003 26.1495 86.3279 24.9669 85.027C23.8237 83.7262 22.0499 83.0758 19.6453 83.0758C17.2802 83.0758 15.5063 83.7262 14.3238 85.027C13.1806 86.3279 12.609 88.2003 12.609 90.6442V98.6266C12.609 101.071 13.1806 102.943 14.3238 104.244C15.5063 105.545 17.2802 106.195 19.6453 106.195ZM43.0062 114C42.4543 114 42.1784 113.724 42.1784 113.172V92.2407C42.1784 90.9793 42.1389 89.7967 42.0601 88.693C42.0207 87.5499 41.9616 86.4855 41.8827 85.5001C41.8039 84.9088 42.0601 84.6131 42.6514 84.6131H49.392C49.6285 84.6131 49.8059 84.6526 49.9242 84.7314C50.0819 84.8102 50.1804 84.9679 50.2198 85.2044C50.3381 85.7169 50.4366 86.2884 50.5155 86.9191C50.6337 87.5499 50.7126 88.1806 50.752 88.8113C52.0134 87.5499 53.3931 86.4264 54.891 85.4409C56.3889 84.416 58.2219 83.9036 60.3899 83.9036C62.5186 83.9036 64.1347 84.2978 65.2385 85.0862C66.3422 85.8351 67.1503 87.0177 67.6627 88.6339C68.8847 87.3725 70.2841 86.2687 71.8609 85.3227C73.477 84.3766 75.31 83.9036 77.3598 83.9036C80.1191 83.9036 82.1886 84.6723 83.5683 86.2096C84.948 87.7469 85.6378 90.1712 85.6378 93.4824V113.172C85.6378 113.724 85.3619 114 84.81 114H77.005C76.4532 114 76.1772 113.724 76.1772 113.172V95.7293C76.1772 94.4679 75.9604 93.5415 75.5268 92.9503C75.0932 92.3196 74.3443 92.0042 73.2799 92.0042C72.4127 92.0042 71.6046 92.221 70.8557 92.6546C70.1461 93.0882 69.4169 93.6598 68.6679 94.3693V113.172C68.6679 113.724 68.392 114 67.8401 114H60.0352C59.4833 114 59.2074 113.724 59.2074 113.172V95.7293C59.2074 94.4679 58.9709 93.5415 58.4978 92.9503C58.0642 92.3196 57.3153 92.0042 56.2509 92.0042C55.4231 92.0042 54.6348 92.221 53.8858 92.6546C53.1368 93.0882 52.3879 93.6598 51.6389 94.3693V113.172C51.6389 113.724 51.363 114 50.8111 114H43.0062ZM120.701 112.995C120.859 113.271 120.899 113.507 120.82 113.704C120.741 113.901 120.524 114 120.169 114H110.886C110.453 114 110.117 113.842 109.881 113.527L103.259 102.647H100.893V113.172C100.893 113.724 100.617 114 100.066 114H92.2606C91.7088 114 91.4328 113.724 91.4328 113.172V74.443C91.4328 73.8912 91.7088 73.6152 92.2606 73.6152H100.066C100.617 73.6152 100.893 73.8912 100.893 74.443V94.9015H103.495L109.467 85.0862C109.704 84.7708 110.019 84.6131 110.413 84.6131H119.401C119.755 84.6131 119.972 84.7117 120.051 84.9088C120.13 85.0665 120.071 85.2833 119.874 85.5592L111.477 98.3901L120.701 112.995ZM140.443 114.71C139.182 114.71 137.762 114.532 136.186 114.177C134.609 113.862 133.269 113.389 132.165 112.758L132.047 105.604C132.914 106.116 133.821 106.491 134.767 106.727C135.713 106.964 136.56 107.082 137.309 107.082C138.689 107.082 139.694 106.629 140.325 105.722C140.955 104.815 141.271 103.534 141.271 101.879V95.9658C141.271 94.6256 141.034 93.6401 140.561 93.0094C140.088 92.3393 139.28 92.0042 138.137 92.0042C137.033 92.0042 135.949 92.3393 134.885 93.0094C133.821 93.6795 132.776 94.5073 131.751 95.4928L131.101 89.5799C132.007 88.6339 132.993 87.7469 134.057 86.9191C135.161 86.0519 136.383 85.3424 137.723 84.7905C139.063 84.1992 140.581 83.9036 142.276 83.9036C145.114 83.9036 147.223 84.692 148.603 86.2687C150.022 87.8455 150.731 90.3486 150.731 93.7781V102.706C150.731 106.964 149.844 110.038 148.071 111.931C146.297 113.783 143.754 114.71 140.443 114.71ZM124.597 124.939C124.045 124.939 123.769 124.663 123.769 124.111V92.1225C123.769 90.9005 123.729 89.7376 123.65 88.6339C123.611 87.5301 123.552 86.4855 123.473 85.5001C123.394 84.9088 123.65 84.6131 124.242 84.6131H130.982C131.455 84.6131 131.751 84.8299 131.869 85.2636C131.948 85.6183 132.027 86.0519 132.106 86.5644C132.185 87.0768 132.244 87.5893 132.283 88.1017C132.362 88.6142 132.402 89.1069 132.402 89.5799L133.229 93.3642V124.111C133.229 124.663 132.953 124.939 132.402 124.939H124.597ZM168.997 114.71C164.819 114.71 161.606 113.823 159.359 112.049C157.113 110.235 155.989 107.24 155.989 103.061V85.3818C155.989 84.8694 156.265 84.6131 156.817 84.6131H164.622C165.174 84.6131 165.45 84.8694 165.45 85.3818V103.653C165.45 104.914 165.765 105.84 166.396 106.432C167.066 106.983 168.012 107.259 169.234 107.259C170.417 107.259 171.363 106.924 172.072 106.254C172.782 105.584 173.136 104.697 173.136 103.593V101.583C173.136 100.637 172.88 99.9077 172.368 99.3953C171.855 98.8828 171.047 98.6266 169.943 98.6266C168.879 98.6266 167.913 98.9025 167.046 99.4544C166.218 100.006 165.45 100.716 164.74 101.583L164.622 95.3745C165.686 94.2708 166.967 93.3247 168.465 92.5364C170.003 91.7086 171.737 91.2947 173.669 91.2947C176.428 91.2947 178.596 92.0436 180.173 93.5415C181.789 95 182.597 97.3455 182.597 100.578V103.593C182.597 107.22 181.375 109.979 178.931 111.871C176.526 113.763 173.215 114.71 168.997 114.71ZM187.741 114C187.189 114 186.913 113.724 186.913 113.172V85.3818C186.913 84.8694 187.189 84.6131 187.741 84.6131H195.546C196.098 84.6131 196.374 84.8694 196.374 85.3818V113.172C196.374 113.724 196.098 114 195.546 114H187.741ZM215.31 114.71C210.974 114.71 207.643 113.704 205.317 111.694C203.031 109.644 201.888 106.57 201.888 102.47V85.9731C201.888 83.2926 202.321 80.9866 203.188 79.0551C204.056 77.0841 205.435 75.5665 207.327 74.5022C209.259 73.4379 211.802 72.9057 214.955 72.9057C219.094 72.9057 222.228 73.6941 224.356 75.2708C226.525 76.8082 227.609 79.0748 227.609 82.0706C227.609 84.4358 227.155 86.3279 226.249 87.7469C225.342 89.1266 224.238 90.1909 222.937 90.9399V91.0581C225.027 91.4129 226.623 92.3196 227.727 93.7781C228.87 95.1971 229.442 97.0104 229.442 99.2179V101.642C229.442 105.899 228.2 109.151 225.716 111.398C223.233 113.606 219.764 114.71 215.31 114.71ZM215.605 106.786C217.182 106.786 218.325 106.313 219.035 105.367C219.744 104.382 220.099 103.14 220.099 101.642V99.3361C220.099 97.9959 219.784 97.0301 219.153 96.4388C218.522 95.8081 217.557 95.4928 216.256 95.4928C215.743 95.4928 215.211 95.5322 214.659 95.611C214.108 95.6899 213.536 95.8081 212.945 95.9658C212.353 96.0841 211.762 96.2417 211.171 96.4388V101.76C211.171 103.377 211.506 104.618 212.176 105.485C212.886 106.353 214.029 106.786 215.605 106.786ZM211.171 90.4669L213.595 89.9938C215.093 89.6785 216.256 89.0675 217.084 88.1608C217.911 87.2148 218.325 85.9337 218.325 84.3175C218.325 82.9773 218.049 82.0312 217.498 81.4793C216.985 80.888 216.138 80.5924 214.955 80.5924C213.733 80.5924 212.787 80.9472 212.117 81.6567C211.486 82.3663 211.171 83.5488 211.171 85.2044V90.4669ZM252.255 114C252.018 114 251.821 113.941 251.664 113.823C251.545 113.704 251.467 113.527 251.427 113.29C251.309 112.778 251.191 112.108 251.072 111.28C250.954 110.452 250.836 109.585 250.718 108.678L250.008 106.136V94.192C250.008 92.8911 249.752 91.9845 249.239 91.472C248.766 90.9596 247.899 90.7034 246.638 90.7034C244.312 90.7034 243.228 91.6297 243.386 93.4824C243.425 94.0343 243.149 94.3102 242.558 94.3102H235.403C234.891 94.3102 234.595 94.0146 234.516 93.4233C234.28 90.2698 235.226 87.9046 237.355 86.3279C239.483 84.7117 242.696 83.9036 246.993 83.9036C251.407 83.9036 254.581 84.7511 256.512 86.4461C258.483 88.1017 259.469 90.8216 259.469 94.6059V106.372C259.469 107.555 259.488 108.698 259.528 109.802C259.567 110.906 259.646 112.009 259.764 113.113C259.843 113.704 259.587 114 258.996 114H252.255ZM240.902 114.71C238.458 114.71 236.566 113.98 235.226 112.522C233.925 111.063 233.275 109.013 233.275 106.372C233.275 104.323 233.649 102.667 234.398 101.406C235.187 100.105 236.468 99.0996 238.242 98.3901C240.015 97.6411 242.42 97.1287 245.455 96.8527L250.836 96.3206L250.777 101.11L246.874 101.524C245.179 101.682 243.997 102.036 243.327 102.588C242.656 103.14 242.321 104.007 242.321 105.19C242.321 106.136 242.499 106.826 242.854 107.259C243.248 107.654 243.839 107.851 244.627 107.851C245.652 107.851 246.657 107.555 247.643 106.964C248.628 106.333 249.752 105.308 251.013 103.889L251.605 108.974C250.58 110.038 249.535 111.004 248.471 111.871C247.446 112.699 246.322 113.389 245.1 113.941C243.878 114.453 242.479 114.71 240.902 114.71ZM263.819 114C263.504 114 263.287 113.921 263.169 113.763C263.051 113.566 263.09 113.31 263.287 112.995L267.308 107.023C267.741 106.313 268.195 105.623 268.668 104.953C269.18 104.244 269.693 103.574 270.205 102.943V102.825C268.313 102.115 266.914 101.051 266.007 99.6318C265.14 98.2127 264.706 96.498 264.706 94.4876C264.706 92.4378 265.1 90.6837 265.889 89.2252C266.677 87.7667 267.938 86.6432 269.673 85.8548C271.447 85.027 273.753 84.6131 276.591 84.6131H290.25C290.762 84.6131 291.018 84.8694 291.018 85.3818V113.172C291.018 113.724 290.762 114 290.25 114H282.386C281.834 114 281.558 113.724 281.558 113.172V104.126H279.074L273.398 113.468C273.201 113.823 272.886 114 272.452 114H263.819ZM277.537 97.8579H281.558V91.5903H277.3C275.96 91.5903 275.014 91.8662 274.462 92.4181C273.95 92.97 273.694 93.7583 273.694 94.7832C273.694 95.887 274.009 96.6754 274.64 97.1484C275.31 97.6214 276.276 97.8579 277.537 97.8579ZM144.791 158.71C140.533 158.71 137.419 158.059 135.448 156.758C133.477 155.457 132.492 153.329 132.492 150.372C132.492 148.323 132.945 146.608 133.852 145.228C134.798 143.849 136.256 142.745 138.227 141.917L144.909 139.138C146.013 138.665 146.781 138.251 147.215 137.896C147.688 137.542 147.924 137.069 147.924 136.477C147.924 135.847 147.688 135.393 147.215 135.117C146.781 134.802 145.993 134.644 144.85 134.644C143.746 134.644 142.918 134.802 142.366 135.117C141.814 135.433 141.538 135.984 141.538 136.773C141.538 137.049 141.46 137.266 141.302 137.423C141.184 137.581 141.006 137.66 140.77 137.66H133.852C133.339 137.66 133.044 137.364 132.965 136.773C132.689 134.014 133.556 131.845 135.566 130.269C137.616 128.692 140.809 127.904 145.145 127.904C149.324 127.904 152.398 128.593 154.369 129.973C156.38 131.353 157.385 133.343 157.385 135.945C157.385 138.153 156.892 139.867 155.907 141.089C154.921 142.311 153.482 143.316 151.59 144.105L144.968 146.943C143.825 147.416 143.036 147.889 142.603 148.362C142.169 148.835 141.952 149.407 141.952 150.077C141.952 150.865 142.248 151.378 142.839 151.614C143.431 151.851 144.318 151.969 145.5 151.969C146.84 151.969 147.786 151.752 148.338 151.318C148.93 150.845 149.225 150.136 149.225 149.19C149.225 148.638 149.481 148.362 149.994 148.362H156.853C157.129 148.362 157.326 148.421 157.444 148.539C157.602 148.618 157.7 148.835 157.74 149.19C158.055 152.422 157.227 154.827 155.256 156.404C153.285 157.941 149.797 158.71 144.791 158.71ZM176.255 158.71C171.84 158.71 168.371 157.665 165.849 155.576C163.365 153.487 162.124 150.353 162.124 146.174V140.439C162.124 136.26 163.365 133.127 165.849 131.037C168.332 128.948 171.801 127.904 176.255 127.904C180.71 127.904 184.178 128.948 186.662 131.037C189.145 133.127 190.387 136.26 190.387 140.439V146.174C190.387 150.353 189.145 153.487 186.662 155.576C184.178 157.665 180.71 158.71 176.255 158.71ZM176.255 150.727C177.871 150.727 179.054 150.313 179.803 149.485C180.552 148.658 180.926 147.258 180.926 145.287V141.267C180.926 139.335 180.552 137.955 179.803 137.128C179.054 136.3 177.871 135.886 176.255 135.886C174.639 135.886 173.456 136.3 172.708 137.128C171.959 137.955 171.584 139.335 171.584 141.267V145.287C171.584 147.258 171.959 148.658 172.708 149.485C173.456 150.313 174.639 150.727 176.255 150.727ZM212.015 158.71C210.754 158.71 209.335 158.532 207.758 158.177C206.181 157.862 204.841 157.389 203.737 156.758L203.619 149.604C204.486 150.116 205.393 150.491 206.339 150.727C207.285 150.964 208.132 151.082 208.881 151.082C210.261 151.082 211.266 150.629 211.897 149.722C212.527 148.815 212.843 147.534 212.843 145.879V139.966C212.843 138.626 212.606 137.64 212.133 137.009C211.66 136.339 210.852 136.004 209.709 136.004C208.605 136.004 207.521 136.339 206.457 137.009C205.393 137.68 204.348 138.507 203.323 139.493L202.673 133.58C203.579 132.634 204.565 131.747 205.629 130.919C206.733 130.052 207.955 129.342 209.295 128.791C210.635 128.199 212.153 127.904 213.848 127.904C216.686 127.904 218.795 128.692 220.175 130.269C221.594 131.845 222.303 134.349 222.303 137.778V146.706C222.303 150.964 221.416 154.038 219.643 155.931C217.869 157.783 215.326 158.71 212.015 158.71ZM196.169 168.939C195.617 168.939 195.341 168.663 195.341 168.111V136.122C195.341 134.9 195.301 133.738 195.223 132.634C195.183 131.53 195.124 130.486 195.045 129.5C194.966 128.909 195.223 128.613 195.814 128.613H202.554C203.027 128.613 203.323 128.83 203.441 129.264C203.52 129.618 203.599 130.052 203.678 130.564C203.757 131.077 203.816 131.589 203.855 132.102C203.934 132.614 203.974 133.107 203.974 133.58L204.801 137.364V168.111C204.801 168.663 204.525 168.939 203.974 168.939H196.169ZM241.042 158.71C236.628 158.71 233.159 157.665 230.636 155.576C228.152 153.487 226.911 150.353 226.911 146.174V140.439C226.911 136.26 228.152 133.127 230.636 131.037C233.119 128.948 236.588 127.904 241.042 127.904C245.497 127.904 248.966 128.948 251.449 131.037C253.932 133.127 255.174 136.26 255.174 140.439V146.174C255.174 150.353 253.932 153.487 251.449 155.576C248.966 157.665 245.497 158.71 241.042 158.71ZM241.042 150.727C242.659 150.727 243.841 150.313 244.59 149.485C245.339 148.658 245.714 147.258 245.714 145.287V141.267C245.714 139.335 245.339 137.955 244.59 137.128C243.841 136.3 242.659 135.886 241.042 135.886C239.426 135.886 238.244 136.3 237.495 137.128C236.746 137.955 236.371 139.335 236.371 141.267V145.287C236.371 147.258 236.746 148.658 237.495 149.485C238.244 150.313 239.426 150.727 241.042 150.727ZM273.074 169.648C268.66 169.648 265.388 168.958 263.259 167.579C261.17 166.199 260.263 163.952 260.539 160.838C260.579 160.523 260.677 160.286 260.835 160.129C260.993 160.01 261.19 159.951 261.426 159.951H268.581C268.778 159.951 268.955 160.01 269.113 160.129C269.27 160.247 269.349 160.464 269.349 160.779C269.349 161.489 269.684 162.001 270.355 162.316C271.064 162.671 271.99 162.849 273.134 162.849C274.868 162.849 276.011 162.454 276.563 161.666C277.115 160.878 277.391 159.794 277.391 158.414V156.522C277.391 156.009 277.391 155.517 277.391 155.044C277.43 154.531 277.47 154.019 277.509 153.506H277.391C275.932 154.768 274.415 155.674 272.838 156.226C271.301 156.778 269.704 157.054 268.049 157.054C265.171 157.054 263.042 156.285 261.663 154.748C260.283 153.171 259.593 150.707 259.593 147.357V139.907C259.593 135.768 260.638 132.732 262.727 130.801C264.816 128.869 268.127 127.904 272.661 127.904C274.474 127.904 276.149 128.002 277.686 128.199C279.263 128.357 280.781 128.534 282.239 128.731C283.698 128.928 285.235 129.086 286.851 129.204V156.995C286.851 160.069 286.3 162.533 285.196 164.386C284.131 166.239 282.574 167.579 280.525 168.407C278.475 169.234 275.991 169.648 273.074 169.648ZM272.188 149.072C273.015 149.072 273.843 148.894 274.671 148.539C275.538 148.185 276.445 147.653 277.391 146.943V135.945C276.76 135.827 276.11 135.728 275.44 135.649C274.769 135.571 274.04 135.531 273.252 135.531C271.793 135.531 270.729 135.945 270.059 136.773C269.389 137.601 269.054 138.901 269.054 140.675V145.11C269.054 146.49 269.29 147.495 269.763 148.126C270.276 148.756 271.084 149.072 272.188 149.072Z" fill="white"/>
<path d="M153.537 4.6537C155.221 3.12753 158.07 1.48262 159.987 0C160.55 0.227556 165.725 4.19456 166.339 4.6797C166.449 6.10162 166.379 7.56744 166.379 8.99537L166.377 16.3002C166.377 17.7288 166.34 19.1676 166.403 20.5947C169.005 19.0206 171.676 17.3872 174.241 15.7675L176.933 14.0617C177.537 13.6786 178.139 13.2667 178.779 12.9446C178.823 11.244 178.795 9.53729 178.795 7.83575L178.787 0.125273C181.01 0.134473 180.371 -0.185078 182.126 0.955868L189.35 5.50948C190.107 5.98073 191.009 6.4369 191.663 7.03818C191.61 8.23374 191.643 9.4403 191.643 10.6374V47.8397C191.645 52.6955 193.251 52.3119 196.986 54.8105C197.04 55.8597 196.921 57.3862 196.92 58.5031L196.92 68.395C196.92 70.204 196.853 72.0399 196.949 73.8453C195.697 73.9394 194.411 73.8846 193.154 73.8845L186.479 73.8877C186.504 71.9815 186.755 65.8225 186.387 64.1959C185.807 61.6259 183.04 59.6907 180.427 60.4244C179.18 60.7745 178.129 61.7315 177.127 62.5089L165.988 71.0358C163.66 72.8343 163.008 74.0784 159.749 73.9961C156.602 73.7648 155.195 72.0873 152.863 70.2196C149.982 67.9118 147.034 65.6824 144.094 63.4511C143.002 62.622 141.594 61.3408 140.44 60.7343C137.754 59.3219 134.365 61.0474 133.628 63.9559C133.335 65.1153 133.456 66.7917 133.457 68.0056L133.461 73.8864L127.777 73.8835C126.184 73.883 124.599 73.86 123.009 73.9714C122.975 73.3317 123.047 72.6701 123.048 72.0265L123.049 58.8456C123.048 57.498 123.017 56.1446 123.05 54.798C123.486 54.4473 124.024 54.2038 124.508 53.9262C127.578 52.1679 128.266 51.3295 128.268 48.008L128.263 6.93039C131.015 5.53911 134.236 3.19528 136.938 1.53924C139.132 0.194005 138.589 0.119354 141.176 0.10633C140.989 3.99249 140.944 9.0576 141.142 12.9563C142.374 13.4783 143.459 14.3752 144.598 15.0702L153.517 20.5781C153.562 18.6904 153.534 16.7969 153.534 14.9085L153.537 4.6537ZM141.062 26.9453L141.054 42.7404C141.052 46.3306 141.384 47.1011 144.667 49.1757L151.587 53.6416C152.219 54.0473 152.843 54.4879 153.485 54.874L153.517 54.8367C153.556 53.2702 153.534 51.6996 153.534 50.1325L153.533 42.2683C153.532 40.7743 153.721 37.8605 153.488 36.5478C153.066 34.1689 150.955 33.1779 149.119 31.9911C146.458 30.2709 143.74 28.6383 141.062 26.9453ZM178.878 26.9689C178.014 27.4948 177.144 28.015 176.292 28.5593L169.738 32.6826C166.343 34.8588 166.373 35.4934 166.377 39.2054L166.379 50.6184C166.379 52.0569 166.35 53.5003 166.396 54.938C168.753 53.2965 171.369 51.639 173.788 50.0842C179.347 46.5127 178.869 46.8672 178.869 40.6384L178.87 28.4119C178.87 27.9809 178.948 27.404 178.903 26.9976L178.878 26.9689Z" fill="white"/>
</svg>
